<?xml version="1.0" encoding="UTF-8"?>
<svg version="1.1" viewBox="0 0 1066 1600" width="1183" height="1775" xmlns="http://www.w3.org/2000/svg">
<path transform="translate(0)" d="m0 0h1066v1600h-1066z" fill="#111D2D"/>
<path transform="translate(525,327)" d="m0 0 1 3-1 1h13l10 2 5 5 1 3 14 6 5 2 11 4 9 2 5 3 6 5v-2h3v2l10 3 10 4v2l4 2 6 5 7 3 4 6 2 9v7l4 13 7 16 4 10 3 15 2 22v21l-1 12 2-1 3-6 4-28 3-10 2-8 5-10 3-3 3-10 3-3h5l5 5 3 8v17l-13 43-5 15-2 12-6 9-5 3h-2v2l-5 2-12 1-9 26-10 22-9 15-5 9v9l7 26v16l-3 19-5 26-7 24-3 16-6 23-2 4-2 10-2 5-3 9-2 9h-2l-1 5-12 30-8 19-7 16-3 3-2-3-4-15-4-8-2-9-7-10-9-9-8-7-9-8-16-11-9-7-4 1-5 5 2 4 7 7 8 11 9 9 13 10 7 6-1 5-10 13-5 4-1-10 6-12-5-1-5-5-3-5 1 11 3 1-3 9-1 8-10 19-3 6v3l3-1v-2l5-5 6-10 3-7 2 3-1 6-9 15-7 10-8 8-4 9-3-3-8-21-22-56-7-20-6-15-4-12v-11l-8-21-6-16-5-18-1-9v-9l5-2v-7h-2l-1 2-1-5h2l-3-18-1-4v-34l5-13h2l3-10 5-14 2-3v-13l-4-10-7-16-6-22-2-9-9-2-8-5-7-7-3-7-3-16-8-25-6-29v-10l2-10 6-9 4-3 6 1 3 3 4 11 3 9 3 10 1 13 1 4v19l-1 2h-2l8 16 1-30 6-31 4-18 6-11 3-5 5-14 2-12 5-12 4-5 4-4 3 3h4l3-9h3l3-5 11-9 7-4h2v-2l10-3 7-4 9-1 4-1 8-1z" fill="#CFA49B"/>
<path transform="translate(517,338)" d="m0 0 11 1 5 1h4l5 5 4 1v3l4-1 3 3h4l4 4 8 3 5 3 10 4 7 5v2l3 1v2l6 1-1 4h2l4 6v5h2l2 7 2 1-1 5v7l3 6-2 9-2 2-8 1-11 5-13 5h-2l-1 4-2 4 25-4 11-3 8-1h9v2l5 2 4 6-1 5-7 3v-2l-4 1-3-1v-2h-21l-17 1v2h-4l-2 4-3 1-1 7-3 4-1 4 15 1 12 1 19-2 7 1 14-1v-7l4-2v-5l1-3h9l5 5 6 7v27l-1 13-1 1v7l-2 7v19l3 5-3 2-1 9-1 1-1 9-2 6h-2l-3 10-2 4-2 1-4 10-3 4h-2v2h-4l-1 2-3 1-1 4h-3v2l-9 9-5 4h-3l-2 4-8 6h-2l-1 3-4 4h-2v2h-3l-2 4-2 3-13 4-9 4-11 2h-18l-9-1-2-1v-2l-10-2-7-4v-3l-4-2-4-5-7-4-1-3-6-5-5-6-2-1-3-5v-2l-3-1v-2h-2l-5-7-4-4-4-8-9-8-9-16-1-4 1-9 3-1-1-5v-12l-1-2-1-15-3-8-1-10h-2l-1-10v-10l1-12 5-6 2-4 7-1 9 9v2h7v2l4-1 1-2h32l2-1h15l6 2-4 12-2 12-3 7-1 9-3 3h-2l-2 4-6 11 2 9 3 7h2v2l7 1v2h6l9 3 11 1h9l5-2h13l7-3-7-1h-8l-7 3h-8l-6-3-5-1h-15l-7-4-4-7v-7l3-5 4-4 10-4 2-10 4-13 4-10v-15l-3-12-4-6v-2l-4-2-2-3-1-6-3-5-8-4-9-4-8-4-7-3v-2l-5-1-1-9v-13l-2-5v-9l3-1 2-7 4-5 1-3v-9l3-5 2-4 6-5 5-2 18-3z" fill="#CFA49A"/>
<path transform="translate(703,435)" d="m0 0h4l5 10v20l-5 13v5l-3 1 1 4-1 4h-2l-1 8-2 7 4-1h7l4-3 2-4 5-2v-6l-5-2-1-3 5-16 2-9 5-6 36-1 6 3-1 3-2 1 1 2h-2l1 10 4 2 2 2 5-1 10 3-1 4-5 1-6-1h-2l-1 5-6 2h-2l-1 12-3 5 9 1 2 1v3h8l3 1 11 1v4l-1 3 5 10 8 1h10l12 4v7l7 9 4-2 1-1h8l4 5 5 3 2 5v7l4 2 3 8-1 10-1 5v7l2 6v19l-7 1h-15l-1 10 7 6h14l1 3v8l2 2 2 4v3l8-1 4 9 1 13-1 5v3l-3 2 1 20 1 8h-2v5l1 4-2 3-8-1-3-5-8-1-2 1-5-5-6-1-1-1h-7l-1-4h-5l-1-3-5-1-6-4-4-2-8-3v-1l-10-2-3-1v-2h-7l-6-3-9-3v-2l-3 1-11-4-4-2-8-1-3-1v-2l-5 1v-2h-9l-4 1-6-3-3-1-8-4-5-2-1-2-5-1-7-3-1-2-10-1-5-2h-2v-2l-7 1-4 2-5-4 1-3-7-3-5-6-6-12-7-8-1-4 1-2-2-2 8-13 8-16 8-19 6-18 1-1 12-1 5-1v-2l7-4 6-11 2-13 7-21 10-33v-17l-4-9z" fill="#233446"/>
<path transform="translate(376,482)" d="m0 0 2 3 7 22 3 16 4 6 8 7 7 3 7 2 6 25 6 16 6 12 1 4v13h-1l-1-5-4 1v2h-2v2l-6 3-5 3-7 3-6 3-2 5-4 4-3 6h-2l-2 5-5 5-8 4-2 2-1 2-8 3-20 4h-6v2l-10 1-18 3-4 1-8 1-2-1v2l-11 2-6 1-9 2-7 3h-11l-4-1-1-2-2 2v-9l3-7 7-2 2-5v-12l-3-5-3-12 1-7 1-1v-11l-6-4-3-8 1-5-1-3-1 5-14-3-7-2h-6l-3-1v-2l-7-2-4-2-1-6h-2l1-7 8-12 4-9 2 1 2-4 2 1 4-1v-2l6 1 1-4 2-4h2l1-3 4-2 5-8h3l2 3 3 1v2h3l2 6 8 1 9-3 2-7v-10l2-7 7-3h12l2-6 5-8 12-2 4 1h34v-2l9-3v2h2l1-2v2l8 1 4 3z" fill="#233447"/>
<path transform="translate(539,198)" d="m0 0 7 1 6 1 7-1 10 5 10 1 12 4 15 9 8 4 9 9h4l1 2 13 4 1 3 3 1v4h7l3 3 6 10 4 6 6 2 2 7 2 4 4 1 5 3 5 11 1 3 8 1 5 10-1 11 3 9v5l2 2v10l1 10h2v5h-3l-1 12-2 7h-3l1 5v7l-1 1-1 7-2 2v6l-2 1-3-1v7l-3-3v8h-2l-1-2-2 8h-2l-1-5-5 10h-1l-1-7-5 1v5l-2 2 1 5 1 16 1 4h2l1-7 2 3 3 6h2l2 2 2-2-1 4-3 13-2 5-4 28-5 8-2-1 1-12v-21l-2-22-3-15-5-12-8-19-2-10-1-11-4-8-8-4-9-7v-2l-4-1-13-4-3-2v-2l-2 1-1 2-8-7-11-3-10-3-6-3-13-5-3-2-3-6-4-2-14-1h-7l-1-2h2l-1-2-8 2h-6l-7 1-10 4-7 3h-4v2l-13 8-8 7-2 4-3-1-1 6-4 4-4-2h-3l-4 6-5 10-2 7-2 11-5 14-6 9-3 8-8 38-1 7-1 31-4-4-5-11v-2h2v-21l-1-4v-13h1l2 15 1 14 2-5-2-1h2v-8l3-1 1-9 6-32v-11l3-9 6-1 1-14h-2l1-8h2l1-4 6-11 3-7 2-3 5-1 4-5 3 5 2 1v-10l7-1v-4l10-3 2-4 6-1 1-2h-6l-1-6h-4l1-3h5l1 1h8l3-2h2l3-7 2-1 1 3 2 1 1-4 3-2v3l3-1 2 4h5v-2l5-2 2 6 3 1 5-5 4-3h3l-2 5h-2v3l7-2h6l7 3-3 3h-4v2h7v2l7 4 3 2 1 3 6 5 12 2v-2l2-1h16l5-1 1-2h-8l2-3 30-2-7-1h-16l-4-3h-14l-14 1-7-1 4-2 9-1 8-3-1-3 22-3 3-1-2-1h-7l-9 3-25 5-13 3h-2l1-4 22-5 5-2 10-3-11-1-11 2h-6l2-4 14-2 5-2h-10l-2-1 2-4 14-6h4l2 2h19l1 2-2 2 13-2 12 3 3 1h5l-1-4-9-2v-5l-5-1-7-2h-14l-3 2-14 1-36 12-8 5-10 1 3-3 5-2 3-3 6 1-1-4h-5l3-3 8-4 12-4 5-2 8-2 5-2h-8l-15 4-12 5-3 2-8 1v-3h-3l1-5v-3l20-8 12-5-4-2-10 3-7 3-7 2h-5l-1-5 12-6 13-5 5-2h10l7 1 23 1-8-2-11-1v-3h3l-2-6h2v-2l-16 1v-2l3-2-2-2-7-1-1-2 6-2h-7l-19 10-9 5-4 1 2-5 5-2 5-5 14-6 3-1-1-3-5-2v-1h8l7 1 9-1-13-2h-8l-5 1-1 3-7 1-2 4-5 1-10 9-9 11-8 8h-3l1 3-4 5-5 1-1-2 3-9-4 1 4-6 15-12 1-2-4 1v2l-3-1-3 1h-2l-2 4h-2l1 3h-6v2 3l-3 5h-2l-1 5-5 3h-2v3l-4 1 2-6 3-4h2v-3l3-2-5 1-5 3-4 1 2-4 3-5 2-5 3-3 5-1v-3l5 1 7 3v-2h2l1-5 8-7 1-3h3l9-7 1-2h-5l1-3 8-3h3v-2l-10 2-5-1h-4v2h-9l-6 3-9 2-12 6-6 5-5 4-1 3-8 7-8 5-2-2 5-5 5-6 10-7h2v-2l-9 3-11 7-9 6 2-6 10-11 7-4h2l1-5 8-4h4v-2l7-4 13-4h9l9-2 2-2 11-1z" fill="#362F32"/>
<path transform="translate(427,627)" d="m0 0h2l1 7v8l6 16 10 23 3 8 4 15 11 18 8 14 6 8 9 10 10 9 3 4-1 2h2v2l5 2 11 5v2h2v2l-5 5-4 2-2 4-6 5 5 4 23 16 10 9 9 10 5 9 2 5 1-2 2-20-2-7-9-10v-2l-4-2-11-9-9-7v-1h5l1-3h5l-1 4 7 2 10 9 7 8 2 3 2-6 5-3-1-4-6-3v-2l-4-2-3-3v-2l-7-1-4-5-3-2v-5h2l1-4 3-4 2-5 12-11 5-5 8-10h2l1-5 9-14 10-17 8-16 11-19 6-14 5-16 3 1 5 18 1 15-6 36-5 21-3 11-2 16-7 28-2 4-2 10-2 5-3 9-2 9h-2l-1 5-12 30-8 19-7 16-3 3-2-3-4-15-4-8-2-9-7-10-9-9-8-7-9-8-16-11-9-7-4 1-5 5 2 4 7 7 8 11 9 9 13 10 7 6-1 5-10 13-5 4-1-10 6-12-5-1-5-5-3-5 1 11 3 1-3 9-1 8-10 19-3 6v3l3-1v-2l5-5 6-10 3-7 2 3-1 6-9 15-7 10-8 8-4 9-3-3-8-21-22-56-4-11v-7h2l-1-12-6-15-5-14-6-12-6-15-1-8 1-2h-3l2-5 5-2 1-6-2-2-4-16-2-5-6-29-1-3v-29l3-12 3-5z" fill="#C5D2E4"/>
<path transform="translate(525,327)" d="m0 0 1 3-1 1h13l10 2 5 5 1 3 14 6 5 2 11 4 9 2 5 3 6 5v-2h3v2l10 3 10 4v2l4 2 6 5 7 3 4 6 2 9v7l4 13 7 16 4 10 3 15 2 22v21l-1 12 2-1 3-6 4-28 3-10 2-8 5-10 3-3 3-10 3-3h5l5 5 3 8v17l-13 43-5 15-2 12-6 9-5 3h-2v2l-5 2-12 1-9 26h-1v-5l1-1 1-9 1-1 1-9 3-3-2-1-1-3v-19l2-8v-6l1-1 1-13v-27l-6-7-4-4h-8l-2 7-3 2-1 7-18 2-5-1-17 2-12-1-13-1-2-1 1-5 3-6 1-4 5-5h4v-2l3-1 14-1h17l9 3h4l5-2-1-5-2-4-5-3v-2l-22 3-6 2-17 3h-8l1-4 2-4 11-5 14-5 1-1 8-1 2-5 1-5-3-6v-7l2-5-4-2v-6h-2l-2-6-2-5h-2v-3l-5-2-3-3v-2l-4-2-9-5-8-3-12-6-2-2-4-1-4-2h-2v-3l-5-1-5-4h-7l-1-1-11-1-17 3-7 2-5 2-3 3h-2l-2 7-2 4v7l-4 7-4 8-2 1v9l2 5v19l1 3 4 1 1 2 10 4 10 5 9 4 5 4 2 5v5l5 4 5 8 3 12v15l-6 17-3 9-1 7-2 2-10 4-4 4-1 3v7l3 5v2l4 2 7 1h11l9 3 2 1h8l7-3h8l7 1 1 2-9 3h-12l-5 2h-9l-16-2-4-2-6-1v-2l-7-1-4-4-3-7-1-7 6-11 7-7 2-12 3-7 2-13 3-7-5-2v-1h-32l-22-3-6-3-1-3 5-8h2l1-3 10-4 11-2h17l2-2-11-7-9-4-4-1h-16v-1l-5-1-2 4-5 3h-5v2l-9 2-4 1-2 9-2 5h-2l-1 11-1 2-1 27v14h2l2 10-1 5-1 9v22l-2-4-3-13-9-2-8-5-7-7-3-7-3-16-8-25-6-29v-10l2-10 6-9 4-3 6 1 3 3 4 11 3 9 3 10 1 13 1 4v19l-1 2h-2l8 16 1-30 6-31 4-18 6-11 3-5 5-14 2-12 5-12 4-5 4-4 3 3h4l3-9h3l3-5 11-9 7-4h2v-2l10-3 7-4 9-1 4-1 8-1z" fill="#A47C77"/>
<path transform="translate(523,213)" d="m0 0 7 1 8-1v2l-11 4-1 2 6-1-3 5-9 7h-2l-6 7-3 1-1 5h-2v2l-4-1-5-2h-3v3l-6 2-2 2-3 7-2 4 4-1 5-3 4 1-1 2h-3v3l-4 4-3 6 4-1v-3l6-3 2-5 3-2 2-5-2-2 2-2h5v-2l7-6 3-1v2l2 1v-2l4-1-1 3-11 9-5 4-1 3h2l-2 10 5-1 3-5v-2l5-3 13-14 7-8 7-5 4-1 1-3h7l1-4 10-1 18 2-2 2-12 1-4-1h-7l5 2v3l-9 5-10 4-4 5-4 1-1 3 5-2 7-4 19-10h9l-3 3-4 1 7 1 3 3-4 2v2l2-1h14v4 4l-3 2 16 2 4 2-2 1-22-1-7-1h-10l-15 6-12 5-2 1v5l14-4 10-4 7-1 3 3-7 4-20 8-6 2 1 4-2 3 4-1 1 2h-2v2l9-3 8-4 9-3 12-3h9l-1 2-7 3-10 2-10 4-9 4-4 2 4 1 1 4h-6l-4 4-5 2 8-1 11-6 20-7 13-4 14-1 3-2h14l12 4 1 4 8 3 1 4-7 1-8-3-7-1-7 1-4 1v-3l-1-1h-18l-1-3-14 5-5 3-1 2h14l-2 2-10 3-9 1-2 3 19-3 10 1-1 2-10 3-5 2-22 5-1 3 15-4 10-2 18-4 6-2 14 1v1l-15 3-7 1h-8l2 4-10 3-8 1 9 1 8-1h14l5 3h17l7 1-2 2-30 2-1 1 7 1-1 3-5 1h-18v2h-7l-6-2-6-5v-3l-5-2-2-2-4-2 1-2-3 1-4-1v-2l6-2-6-3-13 1v-3l3-3 1-2-6 3-5 5-2 1v-2h-2l-2-5-5 1v2l-5 1-3-4h-2l-1-2-3 5-3-1-1-2-4 8-4 1-3 1h-6l-5-1v1l3 1v6h6l-1 3-6 1-2 4-5 2h-5v4l-6 2-1 9-3-1-3-3-5 5h-3l-4 8-2 5-6 11h-2l-1 8h2l1 4-2 10-6 1-1 8-1 5v7l-8 41-2 1-1 13-3 3-1-16-2-16h3l1 2 2-11-1-6 1-2v-4l-4-1v-2h-2l-1-7 1-8 5-1-2-7h2l2-9-2-1-1 2-2-6v-7l-1-1-1 7-2 6 3-1 3 3-1 4-2 3-4-1 1-7-4-1-1-4-4-2v-4l3-1 1-3-3-2 1-9 5-12 2-1 3 1v-4l-7-2v-5h-2v-10l5-1v2h5l2-5-3-1-2-4v-6h2v-2h-2v-7l4-1 3 2 1 1-1 11 2 16h-2v8h-2l-1 8-2 2 1 5 1 1v12l2-5h3l-1-10 5-9 1-9 4-8 1-6 8 1 2 9 3 4h3l2-3h9l4-1v-2l6-2 5-4h2v-2h2v-6l-7-1-3-7v-5l-3-3 3-3h4l-1-9 2-4h2v-2l10-8 6-7 2-3-7-1-3 1-1 3-12 3-3 4h-3l-1-5 1-4h-3l-1-5 3 1 1-3 6-3 9-8 4-8 2-2-8 4-5 2-10 9-5 7-2 5-4 4h-2v-8h-9l-4 4h-7l2-1v-5l3-1 3-3h5l1-6 11-8 2 1-1 1 2 1 1-3 2 1-1 1 2 1v-2l6-4 1-2h2v-2l-6 4-3-2 14-10 9-5h5v2l-14 10-5 5-2 4 8-4 5-4 2-3h2l1-4 5-4 8-6 5-3 7-3 7-1 6-3 9 1v-2z" fill="#17181F"/>
<path transform="translate(450,432)" d="m0 0h7v1h14l9 3 16 9-1 4h-19l-15 3-6 3-4 5-3 6 3 3 12 2 13 2h37v1l-9 1h-11l-7 1h-22l-5-1-1 3h-4v-2h-7l-6-7-3-3-7 1-3 5-3 4-1 12v20h2l3 12 2 6 1 15 1 7v12l-2 2-1 9 6 12 5 8 8 7 5 10 5 5 2 4h2l6 7v3l4 2 3 3v2l4 2v2l3 1v3l4 1 7 6 4 4 1 3 9 4 7 2v2l11 1h18l13-3 9-4 7-2h4l2-4 2-3h3v-2h2l2-4 10-8 7-6 4-2 4-4h2l2-5 3-1v-2h3l1-5h3l2-4 1 2h2v-2l4-4 5-11h2l3-9 2-5h2l-3 9-8 16-7 12-5 9v9l7 26v16l-3 19-5 26-7 24h-1l1-8 5-19 6-34 2-13-1-14-5-18-2-1-1 6-6 18-8 15-3 3 1-7 5-10v-5h-5v2l-4 2h-4l-2 4-6 7-7 4-9 4-3 3-7 1-5 4h-5v-2h-23l-9-1-5 3-2 4-11-1v-2l-7-1-4-4-6-2-7-3-1-3-9-3-5-2-7-8-6-3-3-3h-4l-2 2v13l-3-4-3-5v-4h-3l-6-16v-15h-2l-2 9-2 7-2 2-3 14v27l3 13 5 22 3 9 2 9 2 2-1 6-6 3-2 4h3v7l5 13 7 16 5 12 6 16 1 2v12h-2l-1 4-5-13-7-20v-11l-8-21-6-16-5-18-1-9v-9l5-2v-7h-2l-1 2-1-5h2l-3-18-1-4v-34l5-13h2l3-10 5-14 2-3v-13l-4-10-7-16-3-10-1-10v-18l1-7 1-5-1-3v-7h-2l-1-7v-14l1-20 1-2 1-9 1-2h2l2-9 2-5 6-3h7v-2l9-3z" fill="#C09389"/>
<path transform="translate(540,1509)" d="m0 0h8l19 14 3 8 5 13 8 13 7 7 18 11 22 9 16 5 9 4-1 7h-219l1-6 6-9 5-4 6-9 1-4 12-9 13-11 8-7 4-5 8-6 12-6 14-6 12-8z" fill="#AC8C88"/>
<path transform="translate(535,335)" d="m0 0 5 1 2 1 1 5 5 2v2l9 2 6 2 7 3 10 4 8 1 16 8 5 6h2l2-2 6 7 10 1 7 4 3 5 5 1 2 4 1 15 4 17 7 11 4 7 3 9 3 18 1 26-2 22 5-4 5-8 4-2v-3l-4 1v-17l2-10 2-6 2-8 5-10 3-3 3-10 3-3h5l5 5 3 8v17l-13 43-5 15-2 12-6 9-5 3h-2v2l-5 2-12 1-9 26h-1v-5l1-1 1-9 1-1 1-9 3-3-2-1-1-3v-19l2-8v-6l1-1 1-13v-27l-6-7-4-4h-8l-2 7-3 2-1 7-18 2-5-1-17 2-12-1-13-1-2-1 1-5 3-6 1-4 5-5h4v-2l3-1 14-1h17l9 3h4l5-2-1-5-2-4-5-3v-2l-22 3-6 2-17 3h-8l1-4 2-4 11-5 14-5 1-1 8-1 2-5 1-5-3-6v-7l2-5-4-2v-6h-2l-2-6-2-5h-2v-3l-5-2-3-3v-2l-4-2-9-5-8-3-12-6-2-2-4-1-4-2h-2v-3l-5-1-5-4h-7l-1-1-11-1-17 3-7 2-5 2-3 3h-2l-2 7-2 4v7l-4 7-4 8-2 1v9l2 5v19l1 3 4 1 1 2 3 2-5-1-8-1-3-2v-2h-2v-2h-7l-6-12-2-14 4-10 5-3h2v-2l6-1 1-5 4-2v-3h2l-1-3 3-5h3l2-5 3-4h2l1-3 10-4 9-3 19-1h8z" fill="#C09389"/>
<path transform="translate(313,1531)" d="m0 0h12l9 3 10 7v2h2l5 6 8 7 11 9 7 9 7 11 7 9 3 4v2h-206l1-9 6-12 3-3h11v2h7v-2l8-4 8-1 4-4h2v-2l10-6 14-10 13-8 16-6 12-3z" fill="#CFA49B"/>
<path transform="translate(427,627)" d="m0 0h2l1 7v8l6 16 10 23 3 8 4 15 1 3-6 2 5 11 6 16 4 5 3 9h2l6 9 4 8 2 6-1 10-1 3-1 17-3-3-2-3-7-2-6-15-5-3v-6l3-5-1-5-4-1-5 1-1 4-4 1-2 6v7l2 2v6l6 16 3 13 3 2v8l1 4 4-1 8-5h2v-2h3l1-3 10-8 7-6 2 1-5 5 2 4 7 7 8 11 9 9 13 10 7 6-1 5-10 13-5 4-1-10 6-12-5-1-5-5-3-5 1 11 3 1-3 9-1 8-10 19-3 6v3l3-1v-2l5-5 6-10 3-7 2 3-1 6-9 15-7 10-8 8-4 9-3-3-8-21-22-56-4-11v-7h2l-1-12-6-15-5-14-6-12-6-15-1-8 1-2h-3l2-5 5-2 1-6-2-2-4-16-2-5-6-29-1-3v-29l3-12 3-5z" fill="#C5D1E3"/>
<path transform="translate(504,353)" d="m0 0h11l12 1 7 3 7 1 10 6 2 3 6 3 4 7 3 5 2 15 3 6 8 5 3 3v2h2l4 4 6 2 1 7-8 4-9 3h-3v3l-4 2-10 7-3 5-5 1v2h-2l-2 10-1 20-1 7 1 2 1 9 1 3-1 1v7l1 2 1 9 4 8 3 10-1 4-10 4-6 2-8-2-6-4-3-1-1-5 2-3 1-16 1-1 2-23 3-8v-12l-2-9 6-4 1-5-4-1-2-6-7-4-3-4-3-1-5-8-10-4-7-3v-2l-9-3-1-3 1-8 5-7h2l1-18-1-21 5-8z" fill="#E2B9AF"/>
<path transform="translate(493,804)" d="m0 0 4 1 15 11 11 8 10 9 13 12 6 7 4 7 2 9 5 12 2 9 1 2h2l2-6 2-2-1 6-5 9-8 19-6 16-4 7-1 5h-2l1 4-5 10-9 22h-2l-1 8-1 2v5l-7 8h-2l1-4 1-6-2-1-5-10v-2l-6 4h-2l-3-7 1-4 3-4 1-5-4-9-1-7-7 6h-2l-3-9 4-7-2-6-2-4h-2l-3 3-3-1-3-8 1-4 4 10 5-9 9-9 12-20 3-6-1-3-6 11-6 8h-2v2l-4 2 1-6 11-22 1-1 2-12 2-5-2-1-2-7v-5l4 3 3 5 3 3 4 1-1 5-4 7 1 9 9-10 5-7-1-5-10-8-11-9-9-9-8-11-7-7 2-4z" fill="#25374B"/>
<path transform="translate(621,491)" d="m0 0h6l5 6 4 7 1 8v21l-2 5-4 14-3 4-3 10-1 14-4 7-6 7-2 5-6 7-6 4-3 4-4 2-2 4h-2l-3 10-3 5-7 6-4 4-7 2-8 5-10 1-6 1-1 2h-19l-9-7v-2h-2v-5l5-3 2-1 13-1v-2l11 1 16-6 5-4 7-3 5-6 6-9 2-9 3-3 2-6 4-1v-5l3-3h2l2-10 6-3 3 3 1-2v-7l-2-3-2-9-3-3v-2h-2l-6-9v-2l-4-2-3-5-5-4-2-10 2-17 1-1 31-2z" fill="#E2B9AF"/>
<path transform="translate(517,338)" d="m0 0 11 1 5 1h4l5 5 4 1v3l4-1 3 3h4l4 4 8 3 5 3 10 4 7 5v2l3 1v2l6 1-1 4h2l4 6v5h2l2 7 2 1-1 5v7l3 6-2 9-2 2-8 1-11 5-11-1-1 3h-3v-3l12-4 4-2 3-1v-7l-7-2-3-2v-2h-2v-2l-3-1-4-4-5-3-3-6-2-15-5-9-1-3-6-2-5-5-7-4-7-1-7-3-12-1h-11l-6 5-3 6 1 23-1 13-1 3h-2l-2 4-3 7v6l9 4v2l6 1 7 4 5 2 2 3-10-1-9-4-14-7-7-3v-2l-5-1-1-9v-13l-2-5v-9l3-1 2-7 4-5 1-3v-9l3-5 2-4 6-5 5-2 18-3z" fill="#CFA49B"/>
<path transform="translate(313,1531)" d="m0 0h12l9 3 10 7v2h2l5 6 8 7 11 9 7 9 7 11 7 9 3 4v2h-44l-3-4-4-9-1-3 1-3h-4l-3-5-1-4h-2l-7-13-5-8-4-2-1-2-9-3h-7l-8 4-7 4-10 2-5 4-3 3-7 3-3 1-1 3h-2l-3 9-3 5-13 1-4 6-3 2-2 4-4 2-12 1-3 2h-19l1-9 6-12 3-3h11v2h7v-2l8-4 8-1 4-4h2v-2l10-6 14-10 13-8 16-6 12-3z" fill="#A47C77"/>
<path transform="translate(451,689)" d="m0 0 3 4 5 7 2 1 4 7 3 4v2l4 2 4 6v2l4 2 1 5 5 2 6 8 3 3v2l4 2 10 7 9 3h15l8-7 5-6h2v-2l4-4 3-1 2-3h2l1-3 13-13 7-8 3-4h2l1-3h2v-2h2l2-6 3-3 1 2-4 9-3 7-7 12-7 11-1 3h-2l-2 4-8 9h-2l-2 4-11 10-2 6h-2l-2 6h-2l1 5 5 5 8 3 5 6 3 3 6 3 1 4-4 3h-2l-2 7-4-5-7-8-8-7-7-3 1-4-5 1-1 2-4 1 18 14 5 4 9 11 2 3 1 9-2 16-3 3-5-12-11-13-10-9-24-16-4-4 8-7 5-5 3-4h2v-2h-2l-1-2-10-4-5-3v-2h-2l-1-4-8-8-7-6-4-7-7-9-3-7-6-9-7-11-4-9z" fill="#BF9389"/>
<path transform="translate(789)" d="m0 0h62v28l-5 4-2 4-5 2 1 4 4 10 6 9 2 6-1 10-2 2-11 1-1 1-1 10-2 2-5-1-2-4-5-3-1-18-6-4-3-3-5-2-2-6-3-1-2 7-4 1-10-2-2-5-2-7-5-4-1-5 4-1h9l6-5 5-1v-6l7-2 1-5 1-2-7-2 1-4 4-1v-2l-13-1-5-3z" fill="#223346"/>
<path transform="translate(559,1529)" d="m0 0 3 1v2l3 1 3 6 4 4v2h2l1 5h2l1 8v2h3l1 3 8 3v4l4 1 5 9 1 3-5 1v2l-4 1-1 6-2 7h-72l1-4 4-5 4-8 3-11-1-1v-6h2l1-6 2-4 5-5 5-3 6-4 4-11z" fill="#CFA49B"/>
<path transform="translate(432,595)" d="m0 0 5 2 4 8 3 3 7 8 2 5 5 2 3 3v2h2l5 7 8 8v2l4 2 1 3 5 2 6 5 7 4v2l10 3 13 2h23l13-1 4-2 5-2h3v-2l8-3 11-8 12-8 3-3 6-2 3-4h2l-2 5-3 1v3h-3l-2 4-5 6-5 3-4 6-8 7h-2l-1 3-5 3-15 2-9 2-7 1h-11l-11-1-15-3-7-3-10-3-4 2-15-15-7-8-4-4-3-5-3-1-4-5v-2l-5-1-5 1-2 5-3 1 3 15 3 7 1 6h-2l-2-3v-4h-3l-6-16v-15h-2l-2 9-2 7-2 2-3 14v27l3 13 5 22 3 9 2 9 2 2-1 6-6 3-2 4h3v7l5 13 7 16 5 12 6 16 1 2v12h-2l-1 4-5-13-7-20v-11l-8-21-6-16-5-18-1-9v-9l5-2v-7h-2l-1 2-1-5h2l-3-18-1-4v-34l5-13h2l3-10 5-14 2-3z" fill="#A47C77"/>
<path transform="translate(450,707)" d="m0 0h5l9 15 8 14 6 8 9 10 10 9 3 4-1 2h2v2l5 2 11 5v2h2v2l-5 5-4 2v2l-7 4-8 8h-2v2l-5 3-13 11-3 3h-3v2l-11 7-4-1-1-9v-3l-3-2-3-13-4-9-2-8v-5l-2-2v-7l3-6 4-2 1-3 7-2 4 3-1 6-2 3-1 6 5 2 4 9 3 7 7 2 3 5 1-16 2-8-1-8-4-9-5-8-1-3h-2l-6-12-3-5-9-22v-2h2z" fill="#EEEFF3"/>
<path transform="translate(454,489)" d="m0 0h12l9 2 6 1 9 3 1 2 2 15 1 8-7 10-5 5-8 13-2 4-3 1-2 5-2 4v7l4 8 3 3v4l3 1v7l-4 5h-5l-7-8-3-11v-11l-2-5-3-4-1-10-7-14-1-7v-24l6-11z" fill="#E2B9AF"/>
<path transform="translate(480,574)" d="m0 0 19 1 12 2 7 3 23-1 23-3 25 1 1 2-4 7-4 3-2 4-10 10-6 5-13 6-11 4-8 1 3 2v4h-6l-2-2v-4l-12-3-8-5-5-3-16-24-5-4z" fill="#A47B77"/>
<path transform="translate(506,436)" d="m0 0 4 2 3 6v5l5 4 5 8 3 12v15l-6 17-3 9-1 7-2 2-10 4-4 4-1 3v7l3 5v2l4 2 7 1h11l9 3 2 1h8l7-3h8l7 1 1 2-9 3h-12l-5 2h-9l-16-2-4-2-6-1v-2l-7-1-4-4-3-7-1-7 6-11 7-7 2-12 3-7 2-13 3-7-5-2v-1h-32l-22-3-6-3-1-3 5-8h2l1-3 10-4 11-2h17l2-2-7-4v-1l8 1 9 2v-2l2-1z" fill="#C09389"/>
<path transform="translate(312)" d="m0 0h95l2 7 4 8v11l-5 5-2 9-3 5h-12l-3-4v-9l-2-3-2-6-7-4-2 5-8 3-7 2h-7l-2 8-5-1-4-6-8-1-4-3-7-2-6-4-3-5-2-9z" fill="#233447"/>
<path transform="translate(696,222)" d="m0 0h28l2 2 3 9v18l3 4 1 4 7 2 1 3-4 3h-2v14l6 2 1 3-2 3v12l1 7-3 1-5-2-10 1-5-4 1-8 1-7 2-1v-6l-2-2v-5l-4-1 1-1-9 1-2-1h-12l-6 1-8-4-1-7 2-2 9-1 3 2v-15l-3-3h-10v-4l1-2h2l1-5 3-7z" fill="#223346"/>
<path transform="translate(381,418)" d="m0 0 6 1 3 3 4 11 3 9 3 10 1 13 1 4v19l-1 2h-2l3 6 2 9 4 7v4h2l2 11v11l-9-1v-2l-5 1-9-9-3-7-3-16-8-25-6-29v-10l2-10 6-9z" fill="#BB9087"/>
<path transform="translate(454,432)" d="m0 0 3 1h14l9 3 16 9-1 4h-19l-15 3-6 3-4 5-3 6 3 3 12 2 13 2h37v1l-9 1h-11l-7 1h-22l-5-1-1 3h-4v-2h-7l-6-7-3-3-7 1-3 5-3 4-1 12v20h2l3 12 2 6 1 15 1 7v12l-2 2-1 9 6 12 5 8 8 7 5 10 5 5 2 4h2l6 7v3l4 2 3 3v2l4 2v2l3 1v3l4 1 7 6 4 4-1 3v-2l-4-2-6-5-4-2v-2l-5-2v-2h-2l-10-10v-2l-4-1-5-6-4-5v-2h-2l-4-4-2-5-5-5-4-5v-2l-4-2-3-8v-4l-3-1-2-9-3-12-1-13 2-4v-15l-3-9-2-14v-15l2-10 3-16 4-8 5-4 2-3 10-3 2-3 5-1 1-4z" fill="#C09389"/>
<path transform="translate(549,871)" d="m0 0h2v13l-3 9-1 15 1 4-1 4-2 5 6-3 1-2h2l-1 9-3 8-8 11-9 10-5 7h-2l-2 4-10 11-3 3 2-6h-2v-3l-2-1 6-9-6 8-1-3-4-9-1-7-7 6h-2l-3-9 10-13 6-8 5-5 10-13 7-9 9-10 10-15z" fill="#25364A"/>
<path transform="translate(535,335)" d="m0 0 5 1 2 1 1 5 5 2v2l9 2 6 2 7 3 10 4 8 1 16 8 4 4v4l3 1 11 16 2 6 4 6-2 2 3 3 2 4v5l-4 3-5 2-4 2-4 4h-5l3-9-2-6-1-2v-7l2-5-4-2v-6h-2l-2-6-2-5h-2v-3l-5-2-3-3v-2l-4-2-9-5-8-3-12-6-2-2-4-1-4-2h-2v-3l-5-1-5-4h-7l-1-1-11-1-17 3-7 2-5 2-3 3h-2l-2 7-2 4v7l-4 7-4 8-2 1v9l2 5v19l1 3 4 1 1 2 3 2-5-1-8-1-3-2v-2h-2v-2h-7l-6-12-2-14 4-10 5-3h2v-2l6-1 1-5 4-2v-3h2l-1-3 3-5h3l2-5 3-4h2l1-3 10-4 9-3 19-1h8z" fill="#C09389"/>
<path transform="translate(614,668)" d="m0 0h1v9l-2 3v5h-3l-1 5-1 2h-2l-1 5-3 6-5 1v3h2l-1 8-3 6-2 6h-2l-2 5-2 4v9l2 12-4 9-3 1-3 16-3 1v9l3 1v3h5v6l-3 1-3-2-2 1-8-3-6-3-9-7-8-3-6-6v-5h2l1-4 3-4 2-5 12-11 5-5 8-10h2l1-5 9-14 10-17 8-16 9-15z" fill="#EEEFF3"/>
<path transform="translate(697,434)" d="m0 0h5l5 5 3 8v17l-13 43-5 15-2 12-4 1-2 4-5 5-4 2h-11l-2-6 2-9 3-9 3-7 7-10 4-2v-3l-4 1v-17l2-10 2-6 2-8 5-10 3-3 3-10z" fill="#CBA097"/>
<path transform="translate(450,432)" d="m0 0 4 1-3 1-1 5h-5l-2 4-10 3-5 6h-2l-2 6-2 7-2 11-2 10v15l2 14 3 9v15l-2 4 1 15 3 12 2 7 2 1 3 9 2 4 4 4 7 8 2 2v4l4 2v2h2l1 4 3 1 2 4 3 2v2l4 1 3 4v2l5 2 2 4h2v2l5 2v2l6 2 2 4 6 3v2l5 2 13 4v2l11 1h18l13-3 9-4 7-2h4l2-4 2-3h3v-2h2l2-4 10-8 7-6 4-2 4-4h2l2-5 3-1v-2h3l1-5h3l2-4 1 2h2v-2l4-4 5-11h2l3-9 2-5h2l-3 9-8 16-7 12-5 9v9l7 26v16l-3 19-5 26-7 24h-1l1-8 5-19 6-34 2-13-1-14-5-18-2-1-1 6-6 18-8 15-3 3 1-7 5-10 3-8 2-1 2-8v-7h-6l2-4-7 6-6 1-1 3-6 4-11 8-6 4-5 2h-3v2l-6 3-4 1-6 1-9 1h-23l-13-2-10-4v-2l-10-4-10-10-3-2v-2l-4-2-2-4-5-4-2-5h-2l-9-9-3-4v-2l-4-2-2-5-3-1-4-7-5-4-9-19-4-13-1-10v-18l1-7 1-5-1-3v-7h-2l-1-7v-14l1-20 1-2 1-9 1-2h2l2-9 2-5 6-3h7v-2l9-3z" fill="#AC8C88"/>
<path transform="translate(519,1433)" d="m0 0 4 2 2 6 1 14 2 10v6h2l1 5v24l-4 5-8 1-3-2-4 3h-2v2l-9 7-9 8-4 1-3-2-1-8 9-11 14-14 3-4v-8l-1-10h-2l-9 7-5 4-3-1v-9l2-7 4-5 15-15 7-8z" fill="#233447"/>
<path transform="translate(525,327)" d="m0 0 1 3-1 1h13l10 2 5 5 1 3 14 6 5 2 11 4 9 2 5 3 6 5v-2h3v2l10 3 10 4v2l4 2 6 5 7 3 4 6 2 9v7l4 13 7 16 4 10 3 15 2 22v21l-1 12 2-1 3-6 2-13h1l1 7h3v3l-5 4-5 8-4 2 1-31-2-25-4-18-4-5-4-8-4-6-4-17-1-15-2-4-5-1-2-5-6-2-5-1-7-2-5-6-4 2-5-6-16-8-8-1-10-6-9-4-4-1-12-6v-7l-21 1h-9l-18 3-11 4-10 7-5 5-6 4 1 6-5 3-1 4h-4v2l-10 4-5 5h-2l-2 12-8 24-3 5-5 6-2 7-4 17-4 20v29l-1 10-4-2-4-8 1-3 4 7 1-30 6-31 4-18 6-11 3-5 5-14 2-12 5-12 4-5 4-4 3 3h4l3-9h3l3-5 11-9 7-4h2v-2l10-3 7-4 9-1 4-1 8-1z" fill="#926163"/>
<path transform="translate(646,281)" d="m0 0 5 1 7 2 5 3 6 1 9 4-1 2-9-1-4-2 1 2 5 2 1 5 11 2 2 6h-4v2h2v2l4 1 1 2-9-1-1 5h10l3 2v5l6 1 3 2v2l-8-1v-2h-7v2h4l1 5 4 1 5 6v4l2 1-3 1-2-1 2 4-5 1-5-3h-7v2h6l2 1-1 2-4-1h-6l-1-5 1-1-5-4v-2h2v-2h-5l1-3-9 1 1-2 4-1v-5l3-1v-2l-6-1 4-2 3-2h-14v-2l-7-2v-3-1l-4-2-3 6-7-1h-5v-2h-10l-7-2 3-2 2-1 13-1 3-1h9v-4h13l7-1 2 1-2-4-11-3v-3l4 1 2-1-6-2-7-4z" fill="#252730"/>
<path transform="translate(508,846)" d="m0 0 4 3 3 5 3 3 4 1-1 5-4 7 1 9 9-10 5-7 1 2v6h2l2 4 1 9-1 2 6-5-2 5-11 13-9 11-8 11-4 5-5 5-8 11-1-4-4-6v-2h-2l-3 3-3-1-3-8 1-4 4 10 5-9 9-9 12-20 3-6-1-3-6 11-6 8h-2v2l-4 2 1-6 11-22 1-1 2-12 2-5-2-1-2-7z" fill="#243649"/>
<path transform="translate(300,1543)" d="m0 0h7l10 4v2l5 2 3 4 6 11 2 6h2l3 5 1 4h4v5l4 7 3 7h-8l-3-7-5-9-1-7h-2l-5-12v-3l-3 1-13-7v-3h-2l-2-4-3-1-10 4-2 2-3 10-7 5-1 6-1 2h-3l-2-5v-5l-4 1-3-2-4 1-3 5 3 7 4 18v3h-60l3-3 12-1 4-2 3-5h2l2-5 2-2 13-1 3-5 3-8 9-7 6-1 2-4 4-3 10-2 7-4z" fill="#C1948A"/>
<path transform="translate(511,1535)" d="m0 0 5 2 2 8-2 10-2 3h-2v3l-11 8-4 5h-2l-2 5h-4l-2 4-4 1v2l-7 4-14 5-4 5h-5l1-4 2-1 1-12 2-7 2-4h2l1-5 5-6 8-4 18-12 3-4h2l1-3 4-2z" fill="#AD8D89"/>
<path transform="translate(532,782)" d="m0 0h6l5 5 1 3h9l7 6 1 2 6 3 1 4-4 3h-2l-2 7-4-5-7-8-8-7-7-3 1-4-5 1-1 2-4 1 18 14 5 4 9 11 2 3 1 9-2 16-3 3-5-12-11-13-10-9-24-16-4-4 8-7 1-2h10l3-4 7-1z" fill="#25364A"/>
<path transform="translate(313,1531)" d="m0 0h12l9 3 10 7v2h2l5 6 8 7 1 2-4-2-9-7-4-5v-2l-4-2-9-4 3 5v2h2l2 4v3l-5-2-7-4v-2l-8-3h-30v2l-8 5-7 4-5 1-2 5-12 11-7 4-9 6-1 2h-2l-2 4-7 5-10 3-7 3-5 6h-15l1-9 6-12 3-3h11v2h7v-2l8-4 8-1 4-4h2v-2l10-6 14-10 13-8 16-6 12-3z" fill="#926163"/>
<path transform="translate(689,34)" d="m0 0 5 5 15 4 3 3 2 6-1 10 3 3 6 3-2 18v8l-1 1h-10l-8-4-1-2 4-4v-3l-9-2-3 3-9-1-9-3-5-5-6-5 3-4 11-1h26l2-3v-2l-5-2-3-6-5-3-3-3-9-1-1-5 5-3z" fill="#233447"/>
<path transform="translate(540,1509)" d="m0 0h8l19 14 3 8 2 9h-2l-3-6v-2l-3-1v-2h-2v-3l-4-2v-2h-2v-2l-3-1v-2h-5l-1 4-5 1h-3l-4 2-1 3h3v5l-6 9-5 1-2-6-5-5h-7l-9 3h-4v2h-2l-1 5-9 8-9 5-12 12-3 6h-2l-2 7-2 16-3 1-1 4h-18l1-6 6-9 5-4 6-9 1-4 12-9 13-11 8-7 4-5 8-6 12-6 14-6 12-8z" fill="#A47C77"/>
<path transform="translate(1065,1522)" d="m0 0h1v78h-79v-1l15-2 16-4 16-8 12-11 6-8 7-14 5-21z"/>
<path transform="translate(0,1522)" d="m0 0h1l3 19 5 16 7 12 9 10 9 7 14 7 20 5 11 1v1h-79z"/>
<path transform="translate(987)" d="m0 0h79v78h-1l-3-19-5-16-8-14-11-11-15-9-15-5-10-2-11-1z"/>
<path transform="translate(0)" d="m0 0h79v1l-16 2-15 4-14 7-9 7-8 8-8 14-5 16-3 19h-1z"/>
<path transform="translate(632,293)" d="m0 0h2v2l4 1 3 1 4 1 3 1h8v-2l7 1 2 2v3l-16 1-6-1v4l-12 2-13 1-4 2 12 1 1 2h-6v2l-3 1h-10l-2-2h-7l-9 3-25 5-13 3h-2l1-4 22-5 5-2 10-3-11-1-11 2h-6l2-4 14-2 5-2h-10l-2-1 2-4 14-6h4l2 2h19l1 2-2 2 13-2 12 3 3 1h5l-1-4-9-2z" fill="#342E31"/>
<path transform="translate(719)" d="m0 0h46v9l6 3 2 3v10l-2 4-8-1-5-3-3-9-3 1-4 5-6 3-3 4h-8l-7-6-6-3-2-3 1-5 1-1z" fill="#233447"/>
<path transform="translate(615)" d="m0 0h92l-1 5-10 2h-2v7l-3 2h-6v2l-10 5-5-2-11-1-3-4v-2h-5l-2-4-27-1-7-4z" fill="#233447"/>
<path transform="translate(581,1556)" d="m0 0 7 6 11 8 16 8 15 6 16 5 9 4-1 7h-66l1-7 2-6 4-1v-2l5-1-6-9v-3l-4-1-1-4-4-2v-2l-3-1z" fill="#AC8B87"/>
<path transform="translate(543,220)" d="m0 0h3v2l3 1-2 1-4-1 1 2 6 1v-2h7l1-3h8l3 3-13 2-1 3-7 1-2 4-5 1-10 9-9 11-8 8h-3l1 3-4 5-5 1-1-2 3-9-4 1 4-6 15-12 1-2-4 1v2l-3-1-3 1h-2l-2 4h-2l1 3h-6v2 3l-3 5h-2l-1 5-5 3h-2v3l-4 1 2-6 3-4h2v-3l3-2-5 1-5 3-4 1 2-4 3-5 2-5 3-3 5-1v-3l5 1 7 3v-2h2l1-5 8-7 1-3 6 1 10-5 1-2z" fill="#252730"/>
<path transform="translate(616,439)" d="m0 0h9v2l5 2 4 6-1 5-7 3v-2l-4 1-3-1v-2h-21l-17 1v2h-4l-2 4-3 1-1 7-4 4h-3l1 5v4l1 1v8l-4 8-3-1v-2l-4-2-1-8v-9l5-14 5-4 3-3h2l1-3 3-1-5-2-1-4h2v-2l4-3h2l-2 4-1 3 25-4 11-3z" fill="#BF9389"/>
<path transform="translate(612,370)" d="m0 0 6 5 1 2 10 1 7 4 3 5 5 1 2 4 1 15 4 17 7 11 4 7 3 9-1 4-3-6v-3l-4 1-5-5v-2l-3-1-2-5-5-3-5-12-3-1-2-7-3-6v-4h-2v-4l-4-2-6-10-7-10-2-1 1-2h2z" fill="#A57D78"/>
<path transform="translate(559,872)" d="m0 0 2 2 2 6 2 9 1 2h2l2-6 2-2-1 6-5 9-8 19-6 16-4 7-1 5h-2l1 4-5 10-9 22h-2l-1 8-1 2v5l-7 8h-2l1-4 1-6-2-1-5-10v-2l-6 4h-2l-3-7 1-4 10-14 2-1-2 5-4 5h2l-1 4h2v3l12-13 1-2h2l2-4 9-10 11-15 4-16h-2l-2 4v-3l7-11 3-16 1-8z" fill="#233447"/>
<path transform="translate(432,614)" d="m0 0h1v29l3 12-1 3-6-16v-15h-2l-2 9-2 7-2 2-3 14v27l3 13 5 22 3 9 2 9 2 2-1 6-6 3-2 4h3v7l5 13 7 16 5 12 6 16 1 2v12h-2l-1 4-5-13-7-20v-11l-8-21-6-16-5-18-1-9v-9l5-2v-7h-2l-1 2-1-5h2l-3-18-1-4v-34l5-13h2l3-10 5-12z" fill="#B59C9C"/>
<path transform="translate(701,389)" d="m0 0h2v10l-3 12-1 3v9l1 2v7l4 1 1 2h-8l-3 5-3 8-4 5-1 3h-2l-1 3-5-3-3-6-2 4h-2l-2-4-1-16-1-5 2-4 1-3 5-2 2 6 5-9h1v6h2l1-9 2 1v2h2l-1-8h3l1-4h4v-6l2-2 1-7z" fill="#25272F"/>
<path transform="translate(483,575)" d="m0 0h16l12 2 7 3 23-1 23-3 25 1 1 2-2 4-5 3-3 3-10 1-1-6-9 2h-30l-11-1-1-1-16-1 2 6 7 3-1 6 1 9 6 7-4-1-9-6-4-5-6-11-11-12z" fill="#956566"/>
<path transform="translate(587,362)" d="m0 0h6l15 10v2l3 1 11 16 2 6 4 6-2 2 3 3 2 4v5l-4 3-5 2-4 2-4 4h-5l3-9-2-6-1-2v-7l2-5-4-2v-6h-2l-2-6-2-5h-2v-3l-5-2-3-3v-2l-4-2-3-3h3z" fill="#C0938A"/>
<path transform="translate(595,693)" d="m0 0 1 2-4 9-3 7-7 12-7 11-1 3h-2l-2 4-8 9h-2l-2 4-6 6-5 2-4 4h-2v2h-2l-2 4-4 2h-9l-8-2-7-2-3-2-1-4 3-2 14-1 14 2 7-6 5-6h2l1-4 7-8 5-5 5-6h2l2-5 5-5 8-9 3-7h2l2-6z" fill="#A57D78"/>
<path transform="translate(516,1560)" d="m0 0h2l-1 12h2l-3 15-3 7-4 6h-46l4-3 16-9h2l2-4 14-10 9-4 3-3 2-6z" fill="#926163"/>
<path transform="translate(559,1529)" d="m0 0 3 1v2l3 1 3 6 4 4v2l2 1-5-1h-2l-5 3-11 6-6 6-7 2 1 7 1 3-6 5-4 10-1 6v7h-13l1-4 4-5 4-8 3-11-1-1v-6h2l1-6 2-4 5-5 5-3 6-4 4-11z" fill="#C09389"/>
<path transform="translate(598,452)" d="m0 0h14l9 4v2l4 1 4 4 2 9-7 2h-11l-4-3 6-4 1-3-7-1-2 4h-2l-2 4-2 1h-7l-5-3-3-8-6 1-4 4-1 5 7 1v2l-6 1h-8l1-6 3-8 5-5h4v-2l3-1z" fill="#A17874"/>
<path transform="translate(469,449)" d="m0 0h8v2l9 1 8 4-2 10-5 4h-9l-3-3-1 6-20-2-6-3-1-3 5-8h2l1-3 10-4z" fill="#A37A76"/>
<path transform="translate(623,423)" d="m0 0 9 3 7 5-1 3h2v3l2 1-1 5-7-1-1-3-11-1-10 1-15 5-17 3h-8l1-4 2-4 11-5 14-5 1-1 18-1z" fill="#A57D78"/>
<path transform="translate(646,281)" d="m0 0 5 1 7 2 5 3 6 1 9 4-1 2-9-1-4-2 1 2 5 2 1 5 11 2 2 6h-4v2h2v2l4 1 1 2-6-1-16-2-1-1h-13l-7-1-2 4h-5l-4-3h-9l3 1-1 2-12-1-1-2 5-2 13-1 3-1h9v-4h13l7-1 2 1-2-4-11-3v-3l4 1 2-1-6-2-7-4z" fill="#18181F"/>
<path transform="translate(508,846)" d="m0 0 4 3 3 5 3 3 4 1-1 5-4 7 1 9 9-10 5-7 1 2v6h2l2 4 1 9-1 2 6-5-2 5-11 13-2 1 2-4 1-3-2-1-1-5-2-9v-3l-8 9-11 20-5 5 2-5 9-15 1-6-3 4-6 10-4 5h-2v2l-4 2 1-6 11-22 1-1 2-12 2-5-2-1-2-7z" fill="#384E68"/>
<path transform="translate(500,1540)" d="m0 0h10l2 1v9l-5 5h-2l-1 5-5 5-1 4-4 1-1 4-7 5h-2l-1 3-4 2h-8l-1-2 2-3h2l2-5 6-3 1-7-4-1-1-3 7-2 3-5h2l1-3h2l1-4 4-5z" fill="#B79F9E"/>
<path transform="translate(549,871)" d="m0 0h2v13l-5 10-12 14-7 7-10 13-7 8-8 11-2 1 1-4h-2v-6l6-8 7-10 10-13 7-9 9-10 10-15z" fill="#C2C8D7"/>
<path transform="translate(526,1472)" d="m0 0 4 1 1 3v10l-7 8-10 10-9 6-10 9-6 3-2-2v-6l8-10 14-14 1-2h2l2-4 5-6h2l2-4z" fill="#394F69"/>
<path transform="translate(507,791)" d="m0 0 2 1-7 6 5 4 23 16 10 9 9 10 5 9 2 5 2-2 1 10v8l1 5-3-4-3-11-7-10-9-9-8-7-9-8-16-11-9-7-3-2 5-4h2l2-4z" fill="#C2C6D4"/>
<path transform="translate(622,393)" d="m0 0 5 4v4h2l4 10 1 1v6l4 1 5 12 5 3 2 5 7 7h4l3 9h2l2 14 1 26-2 22h2l-2 4h-3l-1-10 3-10-1-34-3-10-2-3-4-1-7-4v-2l-16-4-3-2v-2l-2-1 5 1 1 2 6 1 1-2-2-1 2-1-1-4h-2l-1-4-12-6-5 1-1 3h-5l4-5 5-3 7-3v-5l-4-6-1-2 2-1-4-6z" fill="#AC8C88"/>
<path transform="translate(300,1543)" d="m0 0h7l10 4v2l5 2 3 4 2 6-7-6-7-3-6-5h-7l-9 4h-2l-1 4-3 2-11 1v2l-7 3-5 1-4 6h-2l-1 20-3 1-15-1-4 3-2 7h-24l3-3 12-1 4-2 3-5h2l2-5 2-2 13-1 3-5 3-8 9-7 6-1 2-4 4-3 10-2 7-4z" fill="#AD8D89"/>
<path transform="translate(519,1433)" d="m0 0 4 2 2 6-1 7-19 19-10 11-4 1-1-1v-9l2-7 4-5 15-15 7-8z" fill="#394F69"/>
<path transform="translate(502,583)" d="m0 0h16l1 1 11 1h32l7-1 1 4-3 2-6-1-3 4-12 4h-23l-4-2-7-2-1-2-7-1-2-3z" fill="#CAADA9"/>
<path transform="translate(789,71)" d="m0 0 4 1 1 1v11l-1 3v13l5 3-1 4-4 2-2 4-2 1h-8l-1-1-1-17-2-6 1-15 9-3z" fill="#233447"/>
<path transform="translate(450,432)" d="m0 0 4 1-3 1-1 5h-5l-2 4-10 3-5 6h-2l-2 6-2 7-2 11-2 10v15l2 14 3 9v15l-2 4 1 15 3 12 2 7 2 1 3 9v7l-3-4-8-18-3-10-1-10v-18l1-7 1-5-1-3v-7h-2l-1-7v-14l1-20 1-2 1-9 1-2h2l2-9 2-5 6-3h7v-2l9-3z" fill="#AC8C88"/>
<path transform="translate(552,916)" d="m0 0h2l-1 9-3 8-8 11-9 10-5 7h-2l-2 4-10 11-3 3 2-6h-2v-3l-2-1 9-12 14-17 11-12z" fill="#C2C7D5"/>
<path transform="translate(522,1543)" d="m0 0h3v9l-2 13-1 14-3 12h-2v3h-2l-1 6h-5l2-5 3-4 4-17 1-2h-2v-7l1-5-3 2-2 7-9 4-18 13-4 4-19 10h-5l1-4 8-4 10-3 4-3h2v-2l5-3 1-2h4l2-5h2l2-4 11-9h2v-3h2l2-5 1-3h2l1-4z" fill="#A57D78"/>
<path transform="translate(398,500)" d="m0 0 6 5 4 7v4h2l2 11v11l-9-1v-2l-5 1-6-6-2-5-3-8v-7h2v3h6l2-4z" fill="#CCA299"/>
<path transform="translate(486,584)" d="m0 0 3 3 10 15 3 4v2l5 2 8 5 14 4-2 1 2 4 6 1-1-4-3-2 1-1 11-2 15-6 9-5 5-5h2l2-5 4-3 3-5v3l-4 7h-2l-2 4-3 1v2l-10 7-4 2h-3v2l-7 4-1 4-6 2-5 2-5 1-1 2h-4v-3l-11-3-5-2-6-4-5-5-2-1-3-10-6-9z" fill="#C09389"/>
<path transform="translate(490,805)" d="m0 0 2 1-5 5 2 4 7 7 8 11 9 9 13 10 7 6-1 5-10 13-5 4-1-10 6-12-5-1-5-5-3-5-2 4-7-19-7-10-10-2-2-1 1-5z" fill="#C1C5D2"/>
<path transform="translate(302,1530)" d="m0 0h27l10 4v2l5 2 2 5h-2v-2l-4-2-8-5-7-2h-12l-13 2-15 4-14 6-12 8-12 9-7 4h-2v2l-5 2-1 3-8 1-5 3h-3v2h-7v-2l-11 1-4 5-5 12-1 6h-2l1-9 5-12 6-5 20-2 17-8-4-1-3 1-7 1 2-4 6-1h7l1 1 3-3 10-4 5-5 15-8 5-2 12-5z" fill="#352F32"/>
<path transform="translate(530,788)" d="m0 0h5l-1 4 7 2 10 9 7 8 2 3 2-6 5-3 2-3 9 10-1 5-3 3-4-1-4-5-4-2-1 7v15l-2 15h-1v-9l1-11-2-7-9-10v-2l-4-2-11-9-9-7v-1h5z" fill="#C2C6D4"/>
<path transform="translate(616,439)" d="m0 0h9v2l5 2 4 6-1 5-7 3v-2l-4 1-3-1v-2h-26l-7-1-1-3 15-7z" fill="#CFA49B"/>
<path transform="translate(454,422)" d="m0 0 19 1 12 4 18 9 1 3-4 3-10-2-18-8-14-1-10 2-5 2-4-1 6-8z" fill="#926163"/>
<path transform="translate(547,891)" d="m0 0 1 2-1 15 1 4-1 4-2 5 4-1-3 5-9 10-6 7v-3l1-3-1-5v-16l1-2h-2l-2 4h-3l7-8 10-11z" fill="#384E68"/>
<path transform="translate(464,433)" d="m0 0h7l9 3 16 9-1 4h-36l-6-3-1-1v-6l2-4z" fill="#CDA49B"/>
<path transform="translate(586,1565)" d="m0 0 4 1v4l4 1 5 9 1 3-5 1v2l-4 1-1 6-2 7h-25l1-6 2-2h9l3-6 9-12 1-3-2-3z" fill="#C09389"/>
<path transform="translate(381,418)" d="m0 0 6 1 3 3 4 11 3 9 3 10 1 13 1 4v19l-1 2h-2l3 6-1 3-4-5v-2h-2l-3-5-4-4-1-5 3-6 4-4 4-15-4-9-2-6v-2h-2l-3-8-1-4-8-1-3 5h-2l2-5z" fill="#A57D78"/>
<path transform="translate(907,635)" d="m0 0 13 2 2 10v2l-1 11-6 2-1-1h-5l-3-5-9-1-1-5 5-4 2-10z" fill="#233447"/>
<path transform="translate(613,633)" d="m0 0h2l-2 5-3 1v3h-3l-2 4-5 6-5 3-4 6-8 7h-2l-1 3-5 3-15 2-9 2-7 1h-11l-11-1-3-2 2-1 5 1h21l13-3 6-2h4v-2l11-4 3-1v-2l4-2 1-4-11 6-8 5-7 2h-5l4-4 5-2h3v-2l8-3 11-8 12-8 3-3 6-2z" fill="#A47C77"/>
<path transform="translate(539,198)" d="m0 0 7 1v1l-13 2-5 1-2-1v2l-3 2-8 1v2l-9 2-3 1h-6l-7 3-5 2-5 3-7 3-5 4-1 3 2 1-11 6-11 8-1-2 4-6 8-9 7-4h2l1-5 8-4h4v-2l7-4 13-4h9l9-2 2-2 11-1z" fill="#262831"/>
<path transform="translate(697,434)" d="m0 0h5l5 5-1 3-5-5v2l-3 1-1 5-2 2-2 5-5 3v6l-3 3-1 8 2 11 2 4v11l-5 5-4 6h-2l-2 6-6 2 7-11 3-3h2v-3l-4 1v-17l2-10 2-6 2-8 5-10 3-3 3-10z" fill="#C1948B"/>
<path transform="translate(489,450)" d="m0 0 8 1 8 4 5 5 3 9v4l-32 1-7-1-1-4 2-3 1 3h11l5-5 1-8-6-2 3-1z" fill="#A47D78"/>
<path transform="translate(606,288)" d="m0 0h14l12 4 1 4 8 3 1 4-7 1-8-3-7-1-7 1-4 1v-3l-1-1h-18l-1-3-2-1 2-2v-1l14-1z" fill="#262831"/>
<path transform="translate(389,437)" d="m0 0 4 3 4 7 2 7-1 3h-2l-2 5-4 6-4 7 1 9 7 7v3l-5-1-7-8-1-4v-16l2-9 3-9 2-9z" fill="#CFA49B"/>
<path transform="translate(507,1577)" d="m0 0 1 3-1 1v6l3 4-1 6-1 3h-33l2-4 11-7 7-7z" fill="#253649"/>
<path transform="translate(396,457)" d="m0 0 2 1-3 10-5 5-2 5 1 5 6 7v2h2l5 7 1 5-3-1-1-2-2 10-2 3-6-1v-3h-2l3 14 2 2-1 3-4-6-4-19-5-16 1-3 6 17 2-2-1-5-4-7 2-2 5 6 5 2-3-5-5-5-1-9 5-8z" fill="#BB9087"/>
<path transform="translate(586,656)" d="m0 0h3l-1 5-4 1v2l-5 3-9 2v2l-12 4-11 2h-21l-15-3-6-2v-2l-4-2v-2l6 1 12 3 10 1h15l19-3 11-4 7-5z" fill="#926163"/>
<path transform="translate(535,335)" d="m0 0 5 1 2 1 1 5 5 2v2l9 2 6 2 7 3 10 4 8 1 16 8 4 4-1 2-9-6-5-3-6-1v3h-6l-9-4-14-7-2-2-4-1-4-2h-2v-3l-5-1-5-4h-7l-1-1-11-1h-17l3-2 19-1h8z" fill="#BD9289"/>
<path transform="translate(337,1558)" d="m0 0h3l1 12h5v-5l3 4 1 2 4 1 3 16 8 9 3 1v2h-17l-6-18-2-2v-3h-2l-4-5-1-3v-10z" fill="#916062"/>
<path transform="translate(513)" d="m0 0h35l1 13-2 2h-10l-2-2-1-6h-7l-3 5-2 1h-7l-2-7z" fill="#233447"/>
<path transform="translate(542,229)" d="m0 0 4 1-1 3-9 6-12 13-7 8-3 3h-3l1 3-4 5-5 1-1-2 3-9-4 1 4-6 10-8 2-2 5-2 4-2 1-4 9-4z" fill="#342F33"/>
<path transform="translate(614,668)" d="m0 0h1v9l-2 3v5h-3l-1 5-1 2h-2l-1 5-3 6-1 1h-5v3h-2l-2 4-1 3h-2l-1 4-2 2-2 7h-2l-4 8h-2l-2 4-6 5 2-4 2-3h2l1-5 9-14 10-17 8-16 9-15z" fill="#EBEDF2"/>
<path transform="translate(625,429)" d="m0 0 9 2v2l3 1v3h-22l-12 3-19 5h-8l1-3 6-4 10-4 14-3 15-1z" fill="#926163"/>
<path transform="translate(679,426)" d="m0 0 2 4h2v-2h2v13l5-1v5l-3 5-4 9-5-3-3-6-2 4h-2l-2-4 1-14h2v-3l7-1-1-5z" fill="#18181F"/>
<path transform="translate(675,322)" d="m0 0 8 1v2h2v2l-8-1 2 2 10 4v3l4 1 5 6v4l2 1-3 1-2-1 2 4-5 1-5-3h-7v2h6l2 1-1 2-4-1h-6l-1-5 1-1-5-5h7l6 3-2-3v-4l-3-2v-2l6 1 1-2h-7l-2 1-7-1 2-6-4-4z" fill="#18181F"/>
<path transform="translate(417,644)" d="m0 0 1 2-2 5v34l3 14v8h-2l1 4 3-1 1 7-5 3v17h-1l-2-11-2-22-1-21v-19l1-1v-6h-2v-6l3-3z" fill="#3B4F69"/>
<path transform="translate(456)" d="m0 0h31l-1 6-5 5-6 2-3 3-4 2-3 3-2-1-1-13-6-2z" fill="#233447"/>
<path transform="translate(483,575)" d="m0 0 5 1 8 4v3l5 1 3 5 7 3-1 6 1 9 6 7-4-1-9-6-4-5-6-11-11-12z" fill="#926163"/>
<path transform="translate(422,752)" d="m0 0 1 2h4v7l5 13 7 16 5 12 6 16 1 2v12h-2l-1 4-5-13-7-20v-11l-8-21-6-16z" fill="#B59C9B"/>
<path transform="translate(591,455)" d="m0 0h14l10 4 6 5v2l-4-1v-2l-9-3-1 7h-2l-2 4-2 1h-7l-5-3-2-4-1-6-2-2z" fill="#1E1E26"/>
<path transform="translate(516,601)" d="m0 0 6 1h8l3 1 5-2h3v2h9l5 1v2l-5 3-3 2v-3h-2v3l-5 2-3 2h-5l-4-1-10-3-4-3v-5z" fill="#C2958B"/>
<path transform="translate(582,460)" d="m0 0 5 1 3 8 4 2h7l4-4h2l2-5 4 1 3 1-1 4-5 3 3 2v2h-13v2h-9l-3-1h-21l1-4v3l14-1v-2l-7-1v-5z" fill="#A47F7B"/>
<path transform="translate(586,704)" d="m0 0 2 1-4 6-7 8-4 4-3 5h-2l-2 4-6 7-7 6-3 6-5 4-2 3h-2l-1 3-4 3-14-2h-14v-1l25-3 8-7 5-6h2v-2l4-4 3-1 2-3h2l1-3 13-13 7-8 3-4h2z" fill="#BC9289"/>
<path transform="translate(472,453)" d="m0 0h15l7 3-2 10-5 4h-9l-5-4-2-10-8 4-4 1 5-5z" fill="#20222B"/>
<path transform="translate(583,577)" d="m0 0h6l1 2-2 4-5 3-3 3-10 1-1-6-9 2h-30l-6-1v-2h13l10-2 2 1h6l5-3 11-1 12 1z" fill="#966767"/>
<path transform="translate(577,232)" d="m0 0h14l3 2 16 4v2l-5 2-14-1v5l-16 1v-2l3-2-2-2-7-1-1-2 6-2h-9l1-2 10-1z" fill="#252730"/>
<path transform="translate(481,1546)" d="m0 0 2 1-4 5-9 7-5 5-9 11-2 7h-2l-1 8-2 4h-2l-2 6h-10l1-6 6-9 5-4 6-9 1-4 12-9 13-11z" fill="#926163"/>
<path transform="translate(543,767)" d="m0 0 3 1-1 2h-2l-2 6h-2l1 5 5 5 8 3-4 2h-5l-3-5v-2l-9-1-4 3h-5l-3 4-8-1 5-7h2v-2h-2l-1-2-10-4-5-4 6 1 8 4 11 1 4 1 9-6z" fill="#C5D0E2"/>
<path transform="translate(623,631)" d="m0 0 4 1 7 26v16l-3 19-5 26-7 24h-1l1-8 5-19 6-34 2-13-1-14-5-18-2-1-1 6-6 18-8 15-3 3 1-7 5-10 3-8 2-1z" fill="#AE8F8E"/>
<path transform="translate(553,883)" d="m0 0 3 1v2l3 1v11l-2 10-8 12-4 1 1-4-2-1 3-1v-6l-1-1 1-15 2-6h2v-2h2z" fill="#233447"/>
<path transform="translate(524,904)" d="m0 0h1v7l2 4-10 13-7 8-8 11-2 1 1-4h-2v-6l6-8 7-10 10-13z" fill="#B59D9C"/>
<path transform="translate(492,1547)" d="m0 0 1 3-6 5-2 4-6 1v3l3-1 2 2-1 7-5 3h-2l-2 5-3 3v1l8 1-3 2-8 1-1-1v-7l2-14 4-5 8-6 10-6z" fill="#C1948A"/>
<path transform="translate(653,389)" d="m0 0 6 2 3-2 2 11 1 2v13l-1 4 1 2v12h-2l-3-8-3-11-3-8v-7z" fill="#25262F"/>
<path transform="translate(585,583)" d="m0 0 2 1-5 5-2 4-10 10-6 5-6 3-3-1 5-4-1-2-3-1-1 2-5-1 3-1 2-5 5-1 1-2 3-1-1-4 7-2v2l7-2 4-1z" fill="#A57D78"/>
<path transform="translate(418,515)" d="m0 0 3 1 2 8v15l-2 4 1 15 3 12 2 7 2 1 3 9v7l-3-4-8-18-3-10-1-10v-18l1-7 1-5z" fill="#AC8C88"/>
<path transform="translate(684,456)" d="m0 0 1 3-2 3-2 11-2 5-4 28-5 8-2-1 1-12v-21l-1-16 3 1 1 5v10l3 4 4-25 4-1z" fill="#373134"/>
<path transform="translate(894,726)" d="m0 0 2 1 12 1 4 3v9l-4 2h-7l-5 1-7-4h-7v-3l10-1 1-1z" fill="#233447"/>
<path transform="translate(629,606)" d="m0 0 1 2h2l1-2-1 5-3 3-1 2-3 1-6 8-7 6-9 7-5 1v2l-4 4h-3v2l-9 5-3 3-2-1 4-5h3v-2h2l2-4 10-8 7-6 4-2 4-4h2l2-5 3-1v-2h3l1-5h3z" fill="#C09389"/>
<path transform="translate(559,872)" d="m0 0 2 2 2 6 2 9 1 2h2l2-6 2-2-1 6-5 9-8 19-6 16-6 9-6 5 2-4 8-11 4-16h-2l-2 4v-3l7-11 3-16 1-8z" fill="#394E68"/>
<path transform="translate(390,339)" d="m0 0h1v8h3l1 5 7 2-1 4h-4l-5 12-1 9 3 3-2 3h-3l-2 11-2 3v-9l2-5-2-4 3-7-1-13 1-14z" fill="#262831"/>
<path transform="translate(490,805)" d="m0 0 2 1-5 5 2 4 7 7 8 11 14 14-1 4 3 2v4l2 1-5-1-5-5-3-5-2 4-7-19-7-10-10-2-2-1 1-5z" fill="#AA8C89"/>
<path transform="translate(599,1571)" d="m0 0 5 2 18 8 16 5 17 7-1 7h-8l-1-3-6-2-12-6v-2l-4-1-5-4-16-8z" fill="#926163"/>
<path transform="translate(454,699)" d="m0 0 1 2 3 1 12 20 4 5 2 1 5 9 4 7 5 5 1 3-6-1-4-4-7-9-3-5-2-5-6-9-7-11-2-4z" fill="#A37B77"/>
<path transform="translate(617,743)" d="m0 0h1v7l-8 32-2 4-2 10-2 5-3 9-2 9h-2l-1 5-11 27-1-3 5-14 2-9h3l3-10 3-11 1-1 1-7 2-2 3-15 1-9 4-13h2v-7z" fill="#B19594"/>
<path transform="translate(540,789)" d="m0 0 2 1v2l12-1 6 5 1 2 6 3 1 4-4 3h-2l-2 7-4-5-5-8-8-7v-2l-3-1z" fill="#24364A"/>
<path transform="translate(484,571)" d="m0 0 5 1 3 1 34 3 3 1h12l14-1 3-1h26l6-1 1 1v5l-2 1v-3l-25-1-23 3-23 1-10-4-28-3-1 2 1-4z" fill="#C2958B"/>
<path transform="translate(508,846)" d="m0 0 4 3 3 5 3 3 4 1-1 5-4 4-6 12-3 9-6 9-3 2 3-9 6-12 2-14 2-5-2-1-2-7z" fill="#2A3C51"/>
<path transform="translate(420,748)" d="m0 0 2 2 4 14 9 22 2 8-1 9-4-5-2-3-3-1-1-3-2-1 2-4 2-1-5-16-1-9-3-9z" fill="#233447"/>
<path transform="translate(613,271)" d="m0 0 11 2 3 1v3l6-1v-2h-3v-2l7 1 1 2h-4v7l1 1 4 2v1h-8l-9-3-13-2 1-4 3-3z" fill="#262831"/>
<path transform="translate(568,802)" d="m0 0 10 10-1 5-3 3-4-1-4-5-4-2-1 7v15l-2 15h-1v-9l1-11-2-7-4-5 3-1v-6l4 4 2-6 5-3z" fill="#B69E9E"/>
<path transform="translate(513,879)" d="m0 0 2 3-1 6-9 15-7 10-8 8-4 9-3-3 1-3h2l7-20 2-3 1 3 3-1v-2l5-5 6-10z" fill="#B49B9A"/>
<path transform="translate(582,1556)" d="m0 0 5 1 10 10 6 3h3l1 2 6 1 5 4 4 2 7 1 8 3 20 8 2 4-1 5h-4v-6l-8-4-16-5-22-9-15-9-10-9z" fill="#2C2E37"/>
<path transform="translate(464,1558)" d="m0 0 3 1-11 9h-2l-1 5-6 9-5 4-6 10-1 4h-12l2-4 9-6 12-16 10-11 6-3z" fill="#35333A"/>
<path transform="translate(518,864)" d="m0 0 1 2-2 4 1 9 9-9v3l-7 7-13 23-5 5 2-5 9-15 1-6-3 4-6 10-4 5h-2v2l-4 2 1-6 11-22 2-1-2 6-5 11-1 4 6-9 3-9 7-14z" fill="#3B5069"/>
<path transform="translate(564,584)" d="m0 0h5l1 4-3 2-6-1-3 4-12 4h-8l-5-1 1-8h3l1 5 11 1-1-4-2-1 2-1-22-1-7-1v-1h43z" fill="#B99996"/>
<path transform="translate(513,551)" d="m0 0h11l9 3 2 1h8l7-3h8l7 1 1 2-9 3h-12l-5 2h-9v-2l-17-3-2-1z" fill="#BA8F87"/>
<path transform="translate(674,447)" d="m0 0 2 3 3 6h2l-3 17-2 12h-3l-2-5v-12l-1-8v-9l1 3h2z" fill="#262830"/>
<path transform="translate(494,649)" d="m0 0 5 2 3 3 6 2v2l7 1 4 2v2h24l10-3 17-4 3 1-14 5-4 2-11 2h-18l-9-1-2-1v-2l-10-2-7-4v-3l-4-2z" fill="#B79F9F"/>
<path transform="translate(445,629)" d="m0 0 5 2 4 5v2l4 1 6 8 5 5 4 6 7 5 3 4v2l-4-2-3-2-2-4-5-3-1-3-7-5-3-5-4-5-7-3-8 2v2l-4 2v-6l4-4 1-2z" fill="#AD8D89"/>
<path transform="translate(481,347)" d="m0 0 2 1-6 9-3 9-5 4-3 2v3l-5 2-6 4-4 8 1 14 3 5 3 4v2l6 2v2h-2v-2h-7l-6-12-2-14 4-10 5-3h2v-2l6-1 1-5 4-2v-3h2l-1-3 3-5h3l2-5z" fill="#AD8D89"/>
<path transform="translate(613,1580)" d="m0 0 7 2 1 3 6 2v2l9 3 7 4 3 3v1h-22l-3-10-3-4v-2l-4-2z" fill="#A57D78"/>
<path transform="translate(327,1561)" d="m0 0 3 3 3 6v2h2l3 5 1 4h4v5l4 7 3 7h-8l-3-7-5-9-1-7h-2l-2-5z" fill="#AD8D89"/>
<path transform="translate(473,1555)" d="m0 0m-1 1m-1 1m-1 1m-1 1m-2 1h2l-6 12h-2l-2 7-2 16-3 1-1 4h-8l1-4 3-3 3-11h2l1-7 9-11z" fill="#A57D78"/>
<path transform="translate(562,260)" d="m0 0 2 1-1 2 2 2 4 1-2 2-10 3-7 3-7 2h-5l-1-5 12-6z" fill="#262831"/>
<path transform="translate(519,763)" d="m0 0 8 1 6 2 5 1-1 5-4 2h-9l-13-4v-4z" fill="#926163"/>
<path transform="translate(632,293)" d="m0 0h2v2l4 1 3 1 4 1 3 1h8v-2l7 1 2 2v3l-16 1-6-1v4l-12 2h-11v-1l10-1-3-5 4-1 6 2h5l-1-4-9-2z" fill="#262830"/>
<path transform="translate(302,1530)" d="m0 0h27l10 4v2l5 2 2 5h-2v-2l-4-2-8-5-7-2h-12l-13 2-15 4-14 6-18 12 2-4 4-4h2v-2l9-5 5-2 12-5z" fill="#343640"/>
<path transform="translate(532,782)" d="m0 0h6l5 5 1 3h9l-3 2h-8l1 3 4 2 7 7-1 2-9-9-10-5 1-4-5 1-1 2-4 1 2 3-4-2-1-1-10-1-2-2h10l3-4 7-1z" fill="#394D65"/>
<path transform="translate(373,433)" d="m0 0 1 3v15l4 20 3 14 7 12-1 4-2 2-4-10-2-8h-2l-3-11-2-14-1-6v-19z" fill="#CDA49B"/>
<path transform="translate(489,450)" d="m0 0 8 1 8 4 5 5 3 9v4h-8v-3h4v-2h-2l-4-5-5-3-4-1v5h-1v-8l-6-2 3-1z" fill="#926163"/>
<path transform="translate(175,662)" d="m0 0h6l4 1v2h2l2 5 2 2h-2l-2 5h-11l-2-2-1-9z" fill="#233447"/>
<path transform="translate(502,1581)" d="m0 0h3l-1 6-13 13h-14l4-4 11-8 4-2v-2z" fill="#121C2A"/>
<path transform="translate(530,279)" d="m0 0h9l2 2-11 7-2 3-2 8-7 2-2-2 1-8 7-8 4-3z" fill="#111D2D"/>
<path transform="translate(480,424)" d="m0 0 6 1 11 6 9 4 2 6-3 1v2l-9-1-11-3-10-5-4-1h-16v-1l-5-1v-1l13-1 9 1 18 8 10 2 3-3-3-3-12-5-8-4z" fill="#A57E79"/>
<path transform="translate(483,750)" d="m0 0 4 2 11 9 1 3 5 2 6 4 12 2 2 1h9l5-3 1-2h2v-2l7-6 2 1-5 6-10 8-5 3-11-2-5-1-15-6-1-4-8-8-7-6z" fill="#B89E9E"/>
<path transform="translate(411,242)" d="m0 0h1v14l1 3v2l1 3-2 6-1 2-7 9h-1l-1-8 1-4-2-1 1-5 2 2h4v-3l-5-3-2-5 7 3 2-10-1-3z" fill="#233447"/>
<path transform="translate(697,434)" d="m0 0h5l5 5-1 3-5-5v2l-3 1-1 5-2 2-2 5-5 3v6l-3 3-1 5h-2v8l-2 2-1 11-2 1 1-13 3-10 2-8 5-10 3-3 3-10z" fill="#B18F8C"/>
<path transform="translate(618,379)" d="m0 0 9 3 5 3 1 4 4-1 1 8-1 3-5-1-4-2v-2h-2l-6-8v-4h-2z" fill="#AD8D89"/>
<path transform="translate(300,1589)" d="m0 0 5 1 4 7h3l3-5 3-1 4 3v6h-24l-1-6h-2l1-4z" fill="#B78D85"/>
<path transform="translate(511,1535)" d="m0 0 5 2 2 8-4 10h-2l-2 4-8 6-3-1 5-5 1-4 5-2 2-12-12-1 3-3z" fill="#C1948A"/>
<path transform="translate(526,1475)" d="m0 0h3l1 3v7l-6 5-5 6-4 1-1-7 4-6z" fill="#B49A99"/>
<path transform="translate(564,576)" d="m0 0 19 1v2h-18l-9 3-1 1h-6l-3-1-12 2-15-2 1-2 21-1z" fill="#A47C77"/>
<path transform="translate(612,427)" d="m0 0 2 2-13 2-3 3-10 3-8 4-4 4 17-3 12-4h7l-4 3-11 3-17 3h-8l1-4 2-4 11-5 14-5 1-1z" fill="#A57D78"/>
<path transform="translate(558,227)" d="m0 0h8l5 2-1 3-5 5-17 9-9 5-4 1 2-5 5-2 5-5 14-6 3-1-1-3-5-2z" fill="#312D31"/>
<path transform="translate(573,204)" d="m0 0 16 4 12 7 5 3 8 4 5 5 2 4h-5l-6-5-2-1v-4l-9-2-3-3-10-5-9-2z" fill="#262831"/>
<path transform="translate(381,418)" d="m0 0 6 1 3 3 4 11 3 9 3 10 1 17-4-2 1-14-4-9-2-6v-2h-2l-3-8-1-4-8-1-3 5h-2l2-5z" fill="#A27975"/>
<path transform="translate(579,281)" d="m0 0h9l-1 2-7 3-10 2-10 4-9 4-9 3-4-1 11-6 9-5 9-3z" fill="#17181F"/>
<path transform="translate(627,233)" d="m0 0 12 3 3 2v2l3 1v4h7l3 3 6 10 2 2-1 3-7-5v-2l-11-8-1-3-3-1-4-5-2-1v-2l-7-1z" fill="#262831"/>
<path transform="translate(468,453)" d="m0 0 4 1-10 4-2 2 5-2 6-3 1 1v8l-2-2v-3l-6 2 1 5 4 4-3 1-13-3-2-2 1-5z" fill="#926364"/>
<path transform="translate(617,304)" d="m0 0h3v3l-7 2 3 2-2 1 12 1 1 2h-6v2l-3 1h-10l-2-2h-7l-2 1-3-2 9-3-1-3z" fill="#252730"/>
<path transform="translate(591,454)" d="m0 0h21l11 9 4 4-1 4-15 2-2-2 6-4 1-3-8-1v-3l5 1 4 2 1 2 3 1-4-5-8-4-4-1-14-1z" fill="#936264"/>
<path transform="translate(582,1537)" d="m0 0 8 4v2l4 2 4 5v8l-6-5-10-5-1-5-2-1 1-4z" fill="#233447"/>
<path transform="translate(490,879)" d="m0 0 5 1-1 10-3 12-4 1-2-5v-14l2-4z" fill="#EFF0F4"/>
<path transform="translate(682,533)" d="m0 0h5l-2 5-6 6-4 2h-11l-1-1v-5l1-1h7z" fill="#E2B9AF"/>
<path transform="translate(549,854)" d="m0 0 5 4 1 9 2 6-1 3-3-1-2-7-5-1-5-4-3-2v-3l10-1z" fill="#111D2D"/>
<path transform="translate(627,292)" d="m0 0 6 2v2l8 3 1 4-7 1-8-3-7-1-8 1v-2l6-2h-6v-1l6-2z" fill="#18181F"/>
<path transform="translate(435,672)" d="m0 0 7 1 5 9v6l-3-1-3-5-2-1 3 9 1 4h-3l-6-12-1-9z" fill="#ECEEF3"/>
<path transform="translate(476,418)" d="m0 0 2 3 6 1v-3l3 1 2 2 7 3v2l6 1 7 4 5 2 2 3-10-1-9-4-14-7-7-3-1-3z" fill="#B99F9E"/>
<path transform="translate(656,275)" d="m0 0h2l3 3 5 3v6h-3l-1 2-1-3-9-2-3-1v-2h-3l1 3-2 3-4-2-2-4 9-1v-2l7-2z" fill="#262831"/>
<path transform="translate(476,829)" d="m0 0 3 1 3 8-4 7-3 1-7-7v-6z" fill="#EFF0F4"/>
<path transform="translate(649,373)" d="m0 0 5 1 8 5 4 9v5h-3v-5h-7v-2l-3-1v-3h-2l-2-5z" fill="#252730"/>
<path transform="translate(623,631)" d="m0 0 4 1 2 6v7h-1l-2-8-2-1-1 6-6 18-8 15-3 3 1-7 5-10 3-8 2-1z" fill="#B79F9F"/>
<path transform="translate(490,668)" d="m0 0 10 3 10 4 12 2 11 1h18v1l-18 2-11-1-10-2-10-1-10-3-6-2z" fill="#AD8D89"/>
<path transform="translate(596,697)" d="m0 0 2 1-2 9h-2l-2 4-1 3h-2l-1 4-2 2-2 7h-2l-4 8h-2l-2 4-6 5 2-4 2-3h2l1-5 9-14 10-17z" fill="#C6D3E5"/>
<path transform="translate(527,1514)" d="m0 0 4 1-12 7-17 7-8 6-5 4-6 7-11 9v-3l17-16 13-10 13-6 7-3z" fill="#333742"/>
<path transform="translate(540,1509)" d="m0 0h8l5 5-5-1h-7l-12 6-7 4-9 3-20 10 4-5 14-7 14-6 12-8z" fill="#926163"/>
<path transform="translate(381,375)" d="m0 0h2v30l-4 7h-3v2l-2-1 1-2h2l1-4v-24l-2-3 2-3h2z" fill="#223346"/>
<path transform="translate(504,1254)" d="m0 0h2v6l4 7 1-5 2-3 7-2v4l-2 1v-2h-2l3 3v3l-4-1-1 5-2 1v2l-4-2v-1l-3-3-3-2v-9z" fill="#25364A"/>
<path transform="translate(520,955)" d="m0 0 1 4-2 4 3-1h2l2-1-2 4-10 11-3 3 2-6h-2v-3l-2-1 9-12z" fill="#B29B9C"/>
<path transform="translate(582,460)" d="m0 0 5 1 3 8 1 4h-6l-1-1-9-1v-5z" fill="#B39695"/>
<path transform="translate(591,246)" d="m0 0 9 3 10 4 12 4-4 1-12-2-4-3-4 2 1 2h-11v-3h3l-2-6h2z" fill="#262831"/>
<path transform="translate(500,1531)" d="m0 0m-1 1m-2 1h2v3h-2l-1 5-9 8-9 5-7 7-2-1 8-8h2l2-4 10-12 5-2z" fill="#A27874"/>
<path transform="translate(585,455)" d="m0 0h6l-4 2-1 4-6 1-4 4-1 5 7 1v2l-6 1h-8l1-6 4-6 6-5z" fill="#916163"/>
<path transform="translate(549,296)" d="m0 0 4 2h3l6-2h7l1 2-14 5-11 6-10 1 3-3 5-2 3-3 6 1-1-4h-5z" fill="#262831"/>
<path transform="translate(432,614)" d="m0 0h1v29l3 12-1 3-6-16v-15h-3l3-9z" fill="#B69E9F"/>
<path transform="translate(507,791)" d="m0 0 2 1-7 6 5 4 7 5-2 1-3-2-2 2 2 3-1 2-4-2-8-6-3-2 5-4h2l2-4z" fill="#B69E9F"/>
<path transform="translate(507,925)" d="m0 0v3l-6 9-2 7h2v3l3-2-2 4-6 6h-2l-3-9 10-13z" fill="#394F69"/>
<path transform="translate(545,281)" d="m0 0 3 1v3l-3 2 5-1 2 1 6-3 2 1-4 4-7 4-8 1v-3h-3l1-5v-3z" fill="#252933"/>
<path transform="translate(478,225)" d="m0 0 2 2-2 2 1 2-6 4-2 4-8 7-8 5-2-2 5-5 5-6 10-7h2v-2l-4-1 6-2z" fill="#312D31"/>
<path transform="translate(258,1547)" d="m0 0 3 1-7 6-5 5-9 6-9-2-3 1-7 1 2-4 6-1h7l1 1 3-3 10-4 5-5z" fill="#302C31"/>
<path transform="translate(511,1398)" d="m0 0 4 1 1 3v7l-7 8-4-1 2-9z" fill="#3F526A"/>
<path transform="translate(554,860)" d="m0 0h1v6h2l3 9 2 10-2 9h-1l-1-7-5-4-1 2v-12h3 1l-2-6z" fill="#243548"/>
<path transform="translate(422,713)" d="m0 0h1l2 10-1 7-3-1-2 3v3l3 1-2 8-2-3-2-13v-9l5-2z" fill="#AE8F8B"/>
<path transform="translate(703,435)" d="m0 0h4l5 10v20l-5 13v5l-3 1 1 4-1 4h-2l-1 8-2 5h-1l1-8 10-33v-17l-4-9z" fill="#2F3643"/>
<path transform="translate(529,843)" d="m0 0h6l1 1-1 7-2 4 1 1v6l-2-4-7-6-8-6 2-1 7 4 1-4z" fill="#384E68"/>
<path transform="translate(409,651)" d="m0 0h1v6h2l1-2v8l-1 1v19l1 31-2-4-1-16-1-2-1-13h-2l-1 2 1-5 3-1 1-15-1-2z" fill="#233447"/>
<path transform="translate(829)" d="m0 0h6v12l-7 3-5-1 1-6 4-3z" fill="#111D2D"/>
<path transform="translate(441,245)" d="m0 0 3 1-4 4-10 7-2 6-7 1-1 3-3-1 1-3 4-4 4-6 6-2 1-2z" fill="#262831"/>
<path transform="translate(448,685)" d="m0 0h2l2 9 3 10 14 23 2 2 3 8 7 8 2 5-5-5-6-7-8-15-7-11-5-8-4-15z" fill="#BFA19E"/>
<path transform="translate(634,663)" d="m0 0h1v16l5 1 1 2-2 9-3 2-5-1 2-18z" fill="#27394D"/>
<path transform="translate(380,417)" d="m0 0h7l4 3 6 19 1 5-3-4-6-18-5-3-5 1-6 8-2 5-1 7v10l1 11-2-4-1-5v-17l3-8 5-9z" fill="#31333D"/>
<path transform="translate(490,805)" d="m0 0 2 1-5 5 2 4 7 7 6 9 4 10-1 4-5-13-7-10-10-2-2-1 1-5z" fill="#B39998"/>
<path transform="translate(372,1569)" d="m0 0 5 5 7 11 7 9 3 4v2l-5-1-6-4 2-1 1-4h-2v-2l-4-2h-3v-5l-2-1z" fill="#926163"/>
<path transform="translate(587,711)" d="m0 0 1 2-11 18-3 6h-2l-2 4-8 9h-2l-2 4-6 6-2-1 7-7 3-5 5-3 7-12h2l1-4h2l2-5z" fill="#B49998"/>
<path transform="translate(505,665)" d="m0 0 7 2 10 1h23l10-1 3 1v2l-18 2h-15l-12-2-8-3z" fill="#A57D78"/>
<path transform="translate(494,459)" d="m0 0 6 1 4 7v3l-5 1h-10l1-4 2-3h2z" fill="#B59C9B"/>
<path transform="translate(382,431)" d="m0 0 4 1v6l-3 6-3 14-2-1v-21z" fill="#D0A59B"/>
<path transform="translate(678,319)" d="m0 0h9l3 2v5l6 1 3 2v2l-8-1v-2h-7v2l4 1-7-1-4-2v-2l8 1v-2h-2v-2l-4-1 1-1z" fill="#24252E"/>
<path transform="translate(558,240)" d="m0 0 7 1v1h-6v2l10 1-3 3-14 4h-5l2-3h2l1-5 3-3z" fill="#111C2C"/>
<path transform="translate(583,577)" d="m0 0h6l1 2-2 4-5 3-3 3-10 1 1-4 6-2 1-4 5-1z" fill="#926163"/>
<path transform="translate(542,229)" d="m0 0 4 1-1 3-9 6-9 10h-3l1-4-3-1 4-2 1-4 9-4z" fill="#332E31"/>
<path transform="translate(502,583)" d="m0 0h16l-1 3h-2l2 6 2 1-1 2-6-2-1-2-7-1-2-3z" fill="#B99B98"/>
<path transform="translate(255,537)" d="m0 0 2 4v6h3l2 8-3 5-5-2-2-5 1-7h2l-1-6z" fill="#111D2D"/>
<path transform="translate(512,1061)" d="m0 0 3 1v2l10 3 2 4-1 3h-2l-1 2h-4l-1-6-4-2v-2l-4 1-2 3h-2l1-4z" fill="#25364A"/>
<path transform="translate(425,764)" d="m0 0 2 2 8 20 2 8-1 9-2-2-8-28z" fill="#394F69"/>
<path transform="translate(549,568)" d="m0 0 2 1v4 2l-3 2-14 1-15-5 1-2 11-1v3l12 3 2-4 3-1z" fill="#E2B9AF"/>
<path transform="translate(752,139)" d="m0 0h3l3 5 4 2-1 4h-15l-1-4 5-2z" fill="#233447"/>
<path transform="translate(515,959)" d="m0 0v3l-5 7h2l-1 4h2l-1 7-4 5h-2l-3-7 1-4 10-14z" fill="#3B5069"/>
<path transform="translate(945,895)" d="m0 0h1l1 12 2 5v4h-10l-2-2 1-4 4-1 2-13z" fill="#262831"/>
<path transform="translate(549,839)" d="m0 0 3 3 4 9 2-2 1 10v8l1 5-3-4-3-11-7-11z" fill="#AF918E"/>
<path transform="translate(520,1435)" d="m0 0 2 1 2 9-5 5-3 2h-3l1-9 3-5h2z" fill="#B49998"/>
<path transform="translate(579,719)" d="m0 0 1 4-3 5-2 1-1 3-3 3-6 10-5 3-3 2 1-5 6-8 9-9 3-5z" fill="#936365"/>
<path transform="translate(825,376)" d="m0 0 4 1 2 4 5 3v3l-1 1-13 1 1-11z" fill="#233447"/>
<path transform="translate(401,469)" d="m0 0h1v19l-1 2h-2l3 6-1 3-4-5v-2h-2l-4-6v-6h3l4 4h2z" fill="#926263"/>
<path transform="translate(603,647)" d="m0 0 1 2-2 4-5 3-5 6-1 3-5 1-1 3-8 6-17 3-2-2 8-2 9-1 5-3 5-5 6-5 4-6 5-3z" fill="#AD8D89"/>
<path transform="translate(480,574)" d="m0 0h6l-3 1 2 5 7 7 8 12 3 6 8 6 4 4-6-2-5-4-4-4-14-21-5-4z" fill="#A47C77"/>
<path transform="translate(865,628)" d="m0 0 12 2 1 7-1 2-8 1-2 1-1-3v-8z" fill="#233447"/>
<path transform="translate(698,444)" d="m0 0 6 2 1 2v16l-6 15h-1l1-7 2-11-1-11z" fill="#C1948A"/>
<path transform="translate(499,312)" d="m0 0 1 3 3-1 2 4h5v-2l5-2 1 4-3-1-1 4h-7l-7 1-2-2-5-1v-4l2-1 1 3 2 1 1-4z" fill="#262831"/>
<path transform="translate(493,804)" d="m0 0 4 1 8 6h-3l-7-4-1 1 3 9-1 5-7-6-3-3 2-4z" fill="#33475F"/>
<path transform="translate(688,331)" d="m0 0 5 2 2 1v2h2l4 4 2 1-1 4 1 5-6 4v3l-5-5 4-2-1-3h4l-3-6-4-5-3-1z" fill="#262831"/>
<path transform="translate(689,471)" d="m0 0 5 1 2 6v12l-3 8-2-1v-21h-2z" fill="#E2B9AF"/>
<path transform="translate(544,1505)" d="m0 0 4 1 2 1v2l4 2v2l4 1 11 8v5l-5-5-13-10-3-2h-8l-7 4h-2v-2h2v-2l8-4z" fill="#2F3B4D"/>
<path transform="translate(535,335)" d="m0 0 5 1 2 1 1 5 5 2-1 2-5-2-5-7-7 2h-30l3-2 19-1h8z" fill="#AF8E89"/>
<path transform="translate(675,322)" d="m0 0 8 1v2h2v2l-8-1 2 2 8 3v1l-7 1-2 1-7-1 2-6-4-4z" fill="#18181F"/>
<path transform="translate(521,252)" d="m0 0h2l-2 4-7 7h-3l1 3-4 5-5 1-1-2 3-9-4 1 3-5 3 2v6h2l1-4 5-2 4-6z" fill="#262831"/>
<path transform="translate(516,603)" d="m0 0 7 1 1 1 8 1 2 2 5-1v4l-3 2h-4l-3-4-10 1v-2l-4-2z" fill="#D0A59B"/>
<path transform="translate(645,331)" d="m0 0 6 1-1 2h-3v3h2v2l-7 1-13-2-2-2 14-2v-2z" fill="#262831"/>
<path transform="translate(608,326)" d="m0 0h16v2l-11 2h-5v3h-6l-4-3-14-1v-1l22-1z" fill="#262831"/>
<path transform="translate(582,269)" d="m0 0 5 1 3 2-5 2v3l-5 1h-9l-6-1 1-2h7l3-1 1-3z" fill="#25374B"/>
<path transform="translate(620,274)" d="m0 0 4 2 1 5 3 1v1l-15-1-4-1 1-4 4-1h6z" fill="#18181F"/>
<path transform="translate(595,693)" d="m0 0 1 2-4 9-3 7-7 7-3-2 7-9 2-5h2l2-6zm-17 24m-1 1m-2 1 2 1-3 4-2-1z" fill="#AA8580"/>
<path transform="translate(806,491)" d="m0 0 2 1 1 3 6 2 5 1-3 3 3 6-5-1-8-3-4-5 9 1-5-3z" fill="#233447"/>
<path transform="translate(916,779)" d="m0 0h7l2 7 9 2v3l-4 3-5-2-3-6-6-2-4-2 3-2z" fill="#233447"/>
<path transform="translate(673,547)" d="m0 0 4 1-5 2-12 1-9 26h-1v-5l1-1 1-9 1-1 1-9 5-3z" fill="#A68281"/>
<path transform="translate(409,476)" d="m0 0 2 1v25l-1 10-4-2-4-8 1-3 4 7 1-29z" fill="#936364"/>
<path transform="translate(577,316)" d="m0 0 2 2-3 1 3 2-6 2-12 2-11 2 1-4 22-5z" fill="#2F2C31"/>
<path transform="translate(488,276)" d="m0 0 3 1-1 5-2 2-1 4-3 2h-5l-1-3 4-7 1-2z" fill="#111D2D"/>
<path transform="translate(396,457)" d="m0 0 2 1-3 10-5 5-2 5 1 5 4 5-4-1-3-3-1-9 5-8z" fill="#B99189"/>
<path transform="translate(598,452)" d="m0 0h14l6 3-1 3-4-2-1-1h-21l-8 2-8 5-3 2v-3l5-5h4v-2l3-1z" fill="#A88480"/>
<path transform="translate(549,185)" d="m0 0h11l2 3-5 1 3 5-1 4-5-1-4-4 3-1h1l-4-2v-3l-3-1z" fill="#233447"/>
<path transform="translate(630,1584)" d="m0 0h10l17 7 2 4-1 5h-4v-6l-8-4-16-5z" fill="#323C4C"/>
<path transform="translate(374,469)" d="m0 0 2 4v5h3l4 11 5 8-1 4-2 2-4-10-2-8h-2l-3-11z" fill="#C19A93"/>
<path transform="translate(598,319)" d="m0 0h7l-3 1-2 4-16 3h-7v-1l7-2-1-3z" fill="#252730"/>
<path transform="translate(491,750)" d="m0 0 2 1 2 5 4 1 6 3v2l3 1-2 4-5-2-8-7-7-6 2-1 3 1z" fill="#AD8C88"/>
<path transform="translate(400,452)" d="m0 0h1l2 15 1 29 2 5 2-4v10l-4-4-5-11v-2h2v-21l-1-4z" fill="#353033"/>
<path transform="translate(697,434)" d="m0 0h5l5 5-1 3-5-5v2l-3 1-1 5-3 3-1 2h-2v2l-4 1 2-4 3-5 3-8z" fill="#A97F7A"/>
<path transform="translate(405,480)" d="m0 0h3v17l-1 5-3-3-1-3v-13z" fill="#312D31"/>
<path transform="translate(329,1569)" d="m0 0 4 5 3 5v4l4 2 3 8 2 4v3h-3l-3-7-5-9-1-7h-2l-2-5z" fill="#C1948A"/>
<path transform="translate(569,1527)" d="m0 0 2 3 3 3v2h2l-1 4 3 1 1 3-1 3h2l2 4v6l-4-5-7-14-2-6z" fill="#272C36"/>
<path transform="translate(526,1253)" d="m0 0h2v2h2l2 3v9l-7 7h-6l5-5 3-4z" fill="#2B3E53"/>
<path transform="translate(508,876)" d="m0 0 1 2-7 15-1 4 6-9 4-4-2 6-8 11h-2v2l-4 2 1-6 11-22z" fill="#394F69"/>
<path transform="translate(438,809)" d="m0 0 2 3 5 13 4 11-1 3-3-3 1-3h-2v5l-4-1-1-6 3-2v2h2l-1-7h-2l-3-7-1-2z" fill="#334860"/>
<path transform="translate(577,356)" d="m0 0 14 3 14 8 3 3-1 2-9-6-5-3-6-1v2h-3v-2l-4-2-3-2z" fill="#A57D78"/>
<path transform="translate(553,883)" d="m0 0 3 1v2l3 1v7l-3 13h-1l-3-22z" fill="#111D2D"/>
<path transform="translate(419,710)" d="m0 0h2l1 7-5 3v17h-1l-2-11-1-14z" fill="#3F5169"/>
<path transform="translate(664,291)" d="m0 0 13 2h4l2 4-7 1v3h-5l-2-6-5-2z" fill="#262831"/>
<path transform="translate(346,1543)" d="m0 0h2v2l4 2 4 3v2l4 2 2 2 7 6 6 7 2 1 3 9-3-3-4-6-5-6-11-9-11-10z" fill="#313743"/>
<path transform="translate(648,577)" d="m0 0h2l-3 9-8 16-7 12-3 3v-5l3-2 2-5 5-9 2-5h2l3-9z" fill="#A07877"/>
<path transform="translate(670,353)" d="m0 0h7l6 3 6 2 2 3-2 3-4-1-1-2 1-2-4 1-10-3z" fill="#262831"/>
<path transform="translate(507,1577)" d="m0 0 1 3-3 4v-3l-9 3v2l-13 10-6 4h-2l2-4 11-7 7-7z" fill="#36343A"/>
<path transform="translate(683,495)" d="m0 0h2v5l-6 9h-2l-2 6-6 2 7-11 3-3h2v-3l-4 1v-3z" fill="#B48982"/>
<path transform="translate(419,562)" d="m0 0 2 3 2 5 3 3 1 4 2 1 3 9v7l-3-4-8-18-2-6z" fill="#A37C79"/>
<path transform="translate(489,450)" d="m0 0 8 1 8 4 5 5-1 3-5-6-1 2-5-1-7-3-4-2h3z" fill="#A37B76"/>
<path transform="translate(458,430)" d="m0 0 14 1 18 8 1 2-6-1-10-5-4-1h-16v-1l-5-1v-1z" fill="#A9837F"/>
<path transform="translate(642,309)" d="m0 0 9 1 1 2-4 1-3-2-3 6-7-1h-5v-2h-3v-2l-4-1v-1h10l4 3h5l2-3z" fill="#262831"/>
<path transform="translate(556,810)" d="m0 0 4 4 2 1-1 4v15l-2 15h-1v-9l1-11-2-7-4-5 3-1z" fill="#B49A99"/>
<path transform="translate(549,871)" d="m0 0h2v13l-5 10-3 2 2-5 2-4v-4l-4-1 2-4z" fill="#B39998"/>
<path transform="translate(469,323)" d="m0 0h5l1 1h7l1 4h-2l1 5-4 2 1-3h-6l-1-6h-4z" fill="#262831"/>
<path transform="translate(561,590)" d="m0 0 4 2-1 3h-3l-1 3-3 1-2-1-1 4-4 1-1-1v-5l2-2 8-2z" fill="#926163"/>
<path transform="translate(628,694)" d="m0 0h1v11l-5 21-5 17h-1l1-8 5-19z" fill="#B09392"/>
<path transform="translate(668,486)" d="m0 0h1l-1 22-1 9h2l-2 4h-3l-1-10 3-10z" fill="#A98681"/>
<path transform="translate(594,426)" d="m0 0 2 3 4 1-10 4-11-1-1 3h-3v-3l12-4 4-2z" fill="#B89F9E"/>
<path transform="translate(871,237)" d="m0 0h7l6 3 1 3-10 2-3-1z" fill="#233447"/>
<path transform="translate(574,873)" d="m0 0 1 3-7 15-3 1-2-5-2-13 4 4 2 6 3-3z" fill="#B49A99"/>
<path transform="translate(513,879)" d="m0 0 2 3-1 6-6 10h-3l-3 2 2-4 6-10zm-12 21m-7 1 2 3h3l-2 2h-3zm5 0 2 1-2 1z" fill="#B29694"/>
<path transform="translate(558,287)" d="m0 0h6l-2 4-11 5-9 3-4-1 11-6z" fill="#131B28"/>
<path transform="translate(700,244)" d="m0 0 7 1 1 5-4 4-5-1-1-7z" fill="#111D2D"/>
<path transform="translate(612,427)" d="m0 0 2 2-13 2-3 3-20 6-3-1 11-5 14-5 1-1z" fill="#AB8782"/>
<path transform="translate(481,347)" d="m0 0 2 1-6 9-3 9-5 4-3 2v3h-2v-5l5-3v-3h2l-1-3 3-5h3l2-5z" fill="#AC8C88"/>
<path transform="translate(306,1530)" d="m0 0h23l10 4v2l5 2 2 5h-2v-2l-4-2-8-5-7-2h-20z" fill="#343640"/>
<path transform="translate(699,300)" d="m0 0 3 3 1 5-1 9 2 6-1 3-2-2-4-14z" fill="#262831"/>
<path transform="translate(506,877)" d="m0 0 1 2-11 22h-1l1-10 3-6 1-5h4z" fill="#B49A99"/>
<path transform="translate(535,782)" d="m0 0 4 1 4 4 1 3h9l-3 2h-8l1 3 4 2 7 7-1 2-9-9-5-3-1-3v-5l-4-3z" fill="#32445A"/>
<path transform="translate(595,336)" d="m0 0h17l-2 2-3 1 1 3-3 1h-10v-1l5-1 1-2h-8z" fill="#2F2C31"/>
<path transform="translate(506,896)" d="m0 0 1 3-7 12-6 3 1-7z" fill="#BAACB1"/>
<path transform="translate(493,806)" d="m0 0 5 2 4 2v2h-2l1 3-1 7h-4l-1-5v-2l-1-7-2-1z" fill="#111D2E"/>
<path transform="translate(533,780)" d="m0 0 5 1v1l-7 2-3 2h-5l-3 4-8-1 4-5 7-1 3 1z" fill="#B29695"/>
<path transform="translate(548,760)" d="m0 0 2 1-5 6-10 8-5 3-9-2-2-4 5 1h9l5-3 1-2h2v-2z" fill="#AB8C8B"/>
<path transform="translate(686,535)" d="m0 0h2l-2 5-5 5-8 3h-12v-7l2-1 1 5h11l6-4z" fill="#CEA49B"/>
<path transform="translate(630,222)" d="m0 0 4 1 2-1 1 6 5 2-4 4-6-3-3-4z" fill="#233447"/>
<path transform="translate(534,1596)" d="m0 0h16l1 4h-20l1-3z" fill="#C1948A"/>
<path transform="translate(519,767)" d="m0 0 8 1 7 2v2l-4 2h-6l-8-4z" fill="#373032"/>
<path transform="translate(578,471)" d="m0 0h6l7 2 1-2 1 2-1 2 6-1 2 1v2h-9l-3-1h-21l1-4v3l14-1v-2z" fill="#A67F7B"/>
<path transform="translate(597,348)" d="m0 0h5l8 3 11 4-1 2-9-2-11-2-6-2v-2z" fill="#262831"/>
<path transform="translate(317,1591)" d="m0 0 5 3v6h-12l5-8z" fill="#C1948A"/>
<path transform="translate(671,395)" d="m0 0 3 1 2 8-4-1v2h-2v6h-3v-8l3-7z" fill="#23252E"/>
<path transform="translate(598,779)" d="m0 0h5v5l-3 8-5-1 1-7z" fill="#EFF0F4"/>
<path transform="translate(705,363)" d="m0 0h1v7l-2 7h-3l-4-5-1-4 2-1-1-3h2l3 4z" fill="#262831"/>
<path transform="translate(597,235)" d="m0 0 11 2 2 1v2l-5 2-14-1 1-2 5-1z" fill="#262831"/>
<path transform="translate(510,876)" d="m0 0 1 3-3 9-6 9-3 2 3-9 7-13z" fill="#233447"/>
<path transform="translate(435,786)" d="m0 0 2 3 5 13-1 5h-2l-1 2-2-6v-11z" fill="#AC8C88"/>
<path transform="translate(457,712)" d="m0 0 4 5 8 13v2l-5-1-4-8v-2l-3-1z" fill="#C6D3E5"/>
<path transform="translate(787,577)" d="m0 0h3l2 5v4l-11-2v-4z" fill="#111D2D"/>
<path transform="translate(512,842)" d="m0 0 5 3 1 2-1 4 3 2v4l2 1-5-1-5-5-1-5 2-2z" fill="#B59C9C"/>
<path transform="translate(893,701)" d="m0 0 1 2-2 4-5 1v6h5l-2 2-4 1-1-1-1 5-2-1-1-6-1-1v-8h1l1 6h2l3-5 4-2z" fill="#233447"/>
<path transform="translate(393,433)" d="m0 0h1l3 9 3 10 1 17-4-2 1-14-4-9-1-1-1-9z" fill="#9E7473"/>
<path transform="translate(379,429)" d="m0 0h2l-4 10v19l-2-3-1-7v-11l3-6z" fill="#A57D78"/>
<path transform="translate(577,307)" d="m0 0 4 1-4 4-11 2h-6l2-4 14-2z" fill="#282831"/>
<path transform="translate(597,815)" d="m0 0 1 4-12 30-2 2 1-6 4-11 2-9h3z" fill="#B49998"/>
<path transform="translate(422,752)" d="m0 0 1 2h4v7l5 13 3 7v5l-2-3-9-22z" fill="#B09390"/>
<path transform="translate(580,331)" d="m0 0 6 1-2 1v2l-8 1v4l-7-1 3-7z" fill="#111D2D"/>
<path transform="translate(684,456)" d="m0 0 1 3-2 3-2 11-2 5h-2l1-12 1-7 4-1z" fill="#363134"/>
<path transform="translate(696,433)" d="m0 0h6v1l-6 2-3 8-3 5-3 4-2 3 1-6 3-5 1-8z" fill="#343238"/>
<path transform="translate(634,262)" d="m0 0 6 1 14 7 1 2-6 2v-2l-4-2-11-7z" fill="#18181F"/>
<path transform="translate(420,748)" d="m0 0 2 2 4 17 2 12-2-1-4-13v-5l-3-9z" fill="#2B3B4E"/>
<path transform="translate(655,568)" d="m0 0 2 1-6 17-4 4v-6l4-10 2-1z" fill="#1A2535"/>
<path transform="translate(502,1545)" d="m0 0h5l1 3-1 2-6 1v2l-3 1-2-4 2-4z" fill="#D0A59B"/>
<path transform="translate(538,948)" d="m0 0v3l-6 7-7 8-10 11-1 2-2-1 9-11 5-6h2l2-4z" fill="#394F69"/>
<path transform="translate(527,1514)" d="m0 0 4 1-12 7-12 5-2-1 3-3 12-5z" fill="#333B48"/>
<path transform="translate(517,1433)" d="m0 0 2 1-16 17-5 6h-2l-2 4-2 1 3-6h2l2-4 8-9h2l2-4z" fill="#233447"/>
<path transform="translate(538,588)" d="m0 0h7l4 4v2h-11l-1-4z" fill="#C6D3E5"/>
<path transform="translate(435,319)" d="m0 0h5l2 4-6 3-1 5-2 1v-2l-2-1v-3l1-5 3-1z" fill="#18181F"/>
<path transform="translate(577,311)" d="m0 0 12 1-1 2-10 3-6-1v-3z" fill="#1B1C23"/>
<path transform="translate(417,689)" d="m0 0h2l3 16v7l-1-2h-2l-1 2-1-5h2l-2-13z" fill="#AE8F8D"/>
<path transform="translate(436,658)" d="m0 0h2l3 7 2 6h2l3 7v4l-3-1-8-18z" fill="#B79D9C"/>
<path transform="translate(536,336)" d="m0 0 4 4 3 4 7 3-4 2v-3l-5-1-5-4h-7l-1-2z" fill="#C1948A"/>
<path transform="translate(489,759)" d="m0 0 1 2h2l1-2 7 7-1 3-5-1-5-5-2-3z" fill="#C6D3E5"/>
<path transform="translate(586,704)" d="m0 0 2 1-4 6-7 8-5 2 2-4 5-5 4-5h2z" fill="#BF9389"/>
<path transform="translate(534,588)" d="m0 0h3l1 5 11 1v2l-3 1h-8l-5-1z" fill="#CFA59C"/>
<path transform="translate(472,453)" d="m0 0h15v1h-13v12l-2-2-1-8-8 4-4 1 5-5z" fill="#35353C"/>
<path transform="translate(543,1560)" d="m0 0 4 2-3 3-2 6h-3l-2-4v-5z" fill="#B79F9E"/>
<path transform="translate(564,584)" d="m0 0h5l1 4-3 2-6-1-2 2v-5l-6 1v-2h9z" fill="#C8A29A"/>
<path transform="translate(587,574)" d="m0 0 4 1v5l-2 1v-3l-31-1 1-2h25z" fill="#BC9188"/>
<path transform="translate(688,458)" d="m0 0h2l2 2-1 10-5-1-1-5z" fill="#E2B9AF"/>
<path transform="translate(497,339)" d="m0 0h15l-4 2-14 2-8 3-3 1 1-3 10-4z" fill="#B99189"/>
<path transform="translate(533,1066)" d="m0 0 3 2-1 8-3 5h-3l1-7 2-7z" fill="#233447"/>
<path transform="translate(435,643)" d="m0 0h1l2 9 3 7 1 6h-2l-2-3v-4h-2l-3-9 1-3z" fill="#A17975"/>
<path transform="translate(589,291)" d="m0 0h12l-4 3v2h2l-1 2h-8l-1-3-2-1 2-2z" fill="#262831"/>
<path transform="translate(552,916)" d="m0 0h2l-1 9-3 8-4 4 1-6 4-8-1-1-2 1 2-4z" fill="#B29796"/>
<path transform="translate(374,359)" d="m0 0 3 3 1 2v6l-4 2-1-2-3-2 2-2z" fill="#233447"/>
<path transform="translate(605,456)" d="m0 0 6 1 8 5 2 4-4-1v-2l-9-3-1 7-1-3 1-7z" fill="#35353D"/>
<path transform="translate(707,374)" d="m0 0h1l1 14 1 3v6l-4-3v-17z" fill="#233447"/>
<path transform="translate(529,248)" d="m0 0 4 1-6 7-5 7-2-1 1-5z" fill="#111D2D"/>
<path transform="translate(195,1576)" d="m0 0 3 1-4 5-5 12-1 6h-2l1-9 5-12z" fill="#353841"/>
<path transform="translate(430,634)" d="m0 0h2l2 15 2 9-3-4-4-12v-7z" fill="#B49A99"/>
<path transform="translate(523,588)" d="m0 0h9l2 5-1 1h-6l-2-1v-2h-2z" fill="#C6D3E5"/>
<path transform="translate(476,460)" d="m0 0 7 5 1 4h-8l-2-3 1-5z" fill="#1A1A21"/>
<path transform="translate(411,389)" d="m0 0h3l1 7 2 1h-2l-1 4-2-1v-2h-2l-1-5z" fill="#111D2D"/>
<path transform="translate(396,289)" d="m0 0 3 1-1 4 1 5-3 5-2-4v-10z" fill="#233447"/>
<path transform="translate(270,1541)" d="m0 0h2l-2 4-11 7-6 4 2-4 4-4h2v-2z" fill="#35343A"/>
<path transform="translate(491,808)" d="m0 0h3l3 9-2 3-7-7 2-4z" fill="#233447"/>
<path transform="translate(426,588)" d="m0 0 6 6 1 4v13h-1v-6l-3-1-1-8z" fill="#212C3C"/>
<path transform="translate(476,448)" d="m0 0h13l1 5-10-1-3-1z" fill="#AD8C88"/>
<path transform="translate(384,415)" d="m0 0 6 2 4 6 1 8h2l1 2v8l-3-4-5-17-6-4z" fill="#18181F"/>
<path transform="translate(430,374)" d="m0 0 1 3-3 13-1 4-1-4h-2l1-8h2l1-4z" fill="#262831"/>
<path transform="translate(587,234)" d="m0 0h7l4 2-1 3-6 1-5-2z" fill="#18181F"/>
<path transform="translate(612,1577)" d="m0 0h6l4 2 7 1 8 3v1h-10l-15-6z" fill="#303540"/>
<path transform="translate(519,810)" d="m0 0 5 2 15 10 4 8-7-6-10-8-7-5z" fill="#394F69"/>
<path transform="translate(530,788)" d="m0 0h5l-1 4 7 2 1 2-8-2h-5-3l-2-3h5z" fill="#B09391"/>
<path transform="translate(483,575)" d="m0 0 5 1 8 4v4l-9-3-4-3z" fill="#352F31"/>
<path transform="translate(416,486)" d="m0 0h1l2 23v6l-1-3h-2l-1-7v-14z" fill="#AD8D89"/>
<path transform="translate(679,426)" d="m0 0 2 4h2v-2h2l-1 9h-4l-2-10z" fill="#151923"/>
<path transform="translate(518,866)" d="m0 0 2 2 2 5 2-1-2 4-5 4-1-10z" fill="#AD9393"/>
<path transform="translate(591,805)" d="m0 0 3 1-1 9-2 4-3-1 1-11z" fill="#EFF0F4"/>
<path transform="translate(548,346)" d="m0 0 9 2 6 2 4 2-6 1-8-1-3-3v-2z" fill="#B59089"/>
<path transform="translate(662,227)" d="m0 0 4 5-1 1v10h-3l-1-9-6-3v-1l6-1z" fill="#233447"/>
<path transform="translate(583,578)" d="m0 0h5l-2 4-8 4h-2l2-6z" fill="#2E292C"/>
<path transform="translate(486,575)" d="m0 0h13l12 2 3 3-28-4z" fill="#A47B77"/>
<path transform="translate(421,404)" d="m0 0h4l-2 5-2 1v4l-4 4-1-4 3-9z" fill="#262831"/>
<path transform="translate(617,304)" d="m0 0h3v3l-13 4h-5v-2z" fill="#233447"/>
<path transform="translate(496,247)" d="m0 0h3l-1 5-6 1-2 4-4 1 1-4 4-2 1-3z" fill="#373032"/>
<path transform="translate(556,828)" d="m0 0 2 2v11l-1 7-3-3-1-6h2z" fill="#172435"/>
<path transform="translate(500,822)" d="m0 0 4 1 1 2-1 1 3 2 2 6-4-1-3-3v-3h-2l-1-4z" fill="#121F2F"/>
<path transform="translate(567,740)" d="m0 0 1 4-6 6h-2l-2 4-6 6-2-1 7-7 3-5 5-3z" fill="#B39897"/>
<path transform="translate(595,459)" d="m0 0m3-1 1 2 3 1v3h-4v2l-4-1-4-2 1-3h4v2h3z" fill="#2C3341"/>
<path transform="translate(496,822)" d="m0 0 4 1v4h2l3 5 9 9 2 1-1 2-8-7-9-10z" fill="#334861"/>
<path transform="translate(622,729)" d="m0 0h1l-1 15-2 6-1 4h-2l1-11z" fill="#3A4558"/>
<path transform="translate(590,706)" d="m0 0 1 2-6 7-3 3-3-2 7-7h3zm-12 11m-1 1m-2 1 2 1-3 4-2-1z" fill="#AA8783"/>
<path transform="translate(468,459)" d="m0 0h2l1 5h2l1 5-4-1-5-5 1-3z" fill="#B49B9B"/>
<path transform="translate(653,389)" d="m0 0 6 2 3-2v7l-1-2-3 3h-2l-2 2z" fill="#262831"/>
<path transform="translate(577,316)" d="m0 0 2 2-3 1 3 2-6 2h-7v-2l-2-1 11-3z" fill="#2C2B31"/>
<path transform="translate(544,255)" d="m0 0 6 1-4 4-5 1-1 3-3-1 2-4z" fill="#111D2D"/>
<path transform="translate(560,1449)" d="m0 0h2l-1 4-7 3h-4l1-5z" fill="#394F69"/>
<path transform="translate(794,476)" d="m0 0 4 1 2 3-3 3-2 9h-1z" fill="#233447"/>
<path transform="translate(478,458)" d="m0 0h3v2l7-1v4l-3-1v2l-3 1-5-3z" fill="#373945"/>
<path transform="translate(655,394)" d="m0 0 1 3h2l1-3h2l1 2v8h-2l-1-2h-3z" fill="#18181F"/>
<path transform="translate(550,280)" d="m0 0h3l2 4-1 3-3 1-3-1-4 1 1-3h3l-1-3z" fill="#373032"/>
<path transform="translate(630,1584)" d="m0 0h10l10 4 1 3-5-1-16-5z" fill="#323B4A"/>
<path transform="translate(540,789)" d="m0 0 2 1v2l12-1-1 5-7-1-6-3z" fill="#121E2E"/>
<path transform="translate(566,519)" d="m0 0 5 1 4 3 1 5-5-2-4-2z" fill="#C1948A"/>
<path transform="translate(682,462)" d="m0 0h1l-1 15-2 2-1 11-2 1 1-13 3-10z" fill="#966768"/>
<path transform="translate(480,424)" d="m0 0 6 1 11 6 6 2v1h-6l-17-8z" fill="#A98581"/>
<path transform="translate(642,352)" d="m0 0 9 1 1 3-5-1-1 3h-5l-1-5z" fill="#262831"/>
<path transform="translate(561,274)" d="m0 0 3 1-4 4-1 2-5 2-1-3-5 1 1-2 10-4z" fill="#282F3A"/>
<path transform="translate(464,1558)" d="m0 0 3 1-11 9h-2v4h-2v-5l6-5 5-3z" fill="#353B47"/>
<path transform="translate(916,779)" d="m0 0h7l2 6-9-1-4-2 3-2z" fill="#223245"/>
<path transform="translate(617,743)" d="m0 0h1v7l-2 9-4 1v-3h2v-7z" fill="#B09392"/>
<path transform="translate(409,465)" d="m0 0 1 4-2 11-2 1v-5l-2-1h2v-8z" fill="#302D32"/>
<path transform="translate(464,460)" d="m0 0 2 1 1 4 6 4 1 4-7-1v-3l-4-5z" fill="#A6807B"/>
<path transform="translate(553,925)" d="m0 0 1 4-7 12-7 6 2-4 8-11z" fill="#354A63"/>
<path transform="translate(609,462)" d="m0 0 4 1 1 4-5 3h-3l1-5z" fill="#B49B9A"/>
<path transform="translate(381,418)" d="m0 0 6 1 3 3 3 8-1 3-6-11-8-1z" fill="#926163"/>
<path transform="translate(570,327)" d="m0 0h7v2h7v1l-14 1-7-1 4-2z" fill="#262831"/>
<path transform="translate(491,1462)" d="m0 0 1 2-1 5v9l5-1v2h-2v2l-5-1-1-5 1-8z" fill="#233447"/>
<path transform="translate(555,793)" d="m0 0 5 3 1 2 5 2-4 3-8-5z" fill="#394F69"/>
<path transform="translate(448,685)" d="m0 0h2l2 9 3 10 1 3-3-1-3-9-2-8z" fill="#B69D9D"/>
<path transform="translate(544,652)" d="m0 0 7 1-1 3h-2v2l-5-1-4-2 2-2z" fill="#B79F9F"/>
<path transform="translate(591,309)" d="m0 0h7v2l-6 3-4-1-7-1 3-2z" fill="#262831"/>
<path transform="translate(567,284)" d="m0 0h6l-1 3-9 4-2-3 3-3z" fill="#161821"/>
<path transform="translate(677,277)" d="m0 0 6 3 3 5 1 5-6-5-1-4h-2z" fill="#262831"/>
<path transform="translate(582,1556)" d="m0 0 5 1 10 10 1 2-5-2-10-9z" fill="#303642"/>
<path transform="translate(572,1537)" d="m0 0 3 4 2 4 3 1 2 4v6l-4-5-6-11z" fill="#31343E"/>
<path transform="translate(528,1265)" d="m0 0h4l-1 3-6 6h-6l5-5z" fill="#233447"/>
<path transform="translate(879,600)" d="m0 0h13l2 6-8-3-7-2z" fill="#233447"/>
<path transform="translate(603,470)" d="m0 0 1 2 4 1-10 2h-6v-4h9z" fill="#926163"/>
<path transform="translate(458,430)" d="m0 0h5v2h8v1l-7 1h-9v-1l-5-1v-1z" fill="#AA8783"/>
<path transform="translate(444,356)" d="m0 0 1 2-2 3h-3v2l-3 2-2 3-1-2 4-8z" fill="#262831"/>
<path transform="translate(558,227)" d="m0 0h8l5 2-1 3-6 1-1-3-5-2z" fill="#262831"/>
<path transform="translate(615,759)" d="m0 0h1v6l1 2 2 1h-2l-1 5-2 2-2-1 2-12z" fill="#283A4E"/>
<path transform="translate(605,438)" d="m0 0h7l-4 3-11 3h-4v-2z" fill="#AC8681"/>
<path transform="translate(612,266)" d="m0 0h8l5 5h-9l-4-4z" fill="#262831"/>
<path transform="translate(382,1583)" d="m0 0 4 2 9 11 2 4h-3l-9-13z" fill="#353843"/>
<path transform="translate(512,552)" d="m0 0h10l4 1v2l-9 1-5-2z" fill="#A17773"/>
<path transform="translate(396,519)" d="m0 0 7 2 2 2-1 3-7-2-2-4z" fill="#C1948A"/>
<path transform="translate(668,464)" d="m0 0 3 1 1 5-1 10h-2z" fill="#37363D"/>
<path transform="translate(677,346)" d="m0 0 6 1-3 2v2h6l2 1-1 2-4-1h-6l-1-5z" fill="#1F2028"/>
<path transform="translate(679,301)" d="m0 0h6l2 1v7l-2 1h-5v-2h4l-2-5z" fill="#262831"/>
<path transform="translate(573,300)" d="m0 0 2 1-1 2 11 1 1 2-5 1v-1h-10l-2-1 2-4z" fill="#24262F"/>
<path transform="translate(597,292)" d="m0 0h7v3l3 2-8 1v-2h-2l-1-3z" fill="#18181F"/>
<path transform="translate(556,199)" d="m0 0 5 1 6 3v1h-7l-8-2v-2z" fill="#262831"/>
<path transform="translate(226,1560)" d="m0 0h10l-1 2-7 2-7 1 2-4z" fill="#233447"/>
<path transform="translate(578,1553)" d="m0 0 3 1 2 7 3 3-2 1-3-2v-3h-3l-1-5z" fill="#B98E86"/>
<path transform="translate(686,535)" d="m0 0h2l-2 5-5 5-6 2 1-3 5-3z" fill="#B19391"/>
<path transform="translate(384,462)" d="m0 0h2l1 6-3 5h-2v-7z" fill="#B79F9F"/>
<path transform="translate(703,435)" d="m0 0h4l5 10-1 6-2-4-4-9z" fill="#2E313B"/>
<path transform="translate(417,367)" d="m0 0 2 4-6 4h-2l1-6z" fill="#111D2D"/>
<path transform="translate(504,1525)" d="m0 0 2 1-11 8-6 5-2-1 9-8z" fill="#34333B"/>
<path transform="translate(513,879)" d="m0 0 2 3-1 6-4 5-1-5z" fill="#AD8D89"/>
<path transform="translate(409,516)" d="m0 0h1l2 11v5l-1-3-5-2v-3h2z" fill="#BE9389"/>
<path transform="translate(612,427)" d="m0 0 2 2-13 2-5 2-3-1 8-4z" fill="#AE8D89"/>
<path transform="translate(543,244)" d="m0 0 5 1-5 4-5 3-3-1 2-4 5-2z" fill="#262831"/>
<path transform="translate(544,1505)" d="m0 0 4 1v1l-7 2-8 5h-2v-2h2v-2l8-4z" fill="#2F3440"/>
<path transform="translate(940 1e3)" d="m0 0h1l1 16 1 6-2 3-1-2z" fill="#262831"/>
<path transform="translate(549,839)" d="m0 0 3 3 1 5h-2v2l-4-2 1-6z" fill="#B59C9B"/>
<path transform="translate(600,687)" d="m0 0 1 2-9 17-1-2 4-9v-3z" fill="#B79F9F"/>
<path transform="translate(809,583)" d="m0 0 12 1-2 3h-10z" fill="#111D2D"/>
<path transform="translate(385,508)" d="m0 0h2l2 13 3 5-1 3-4-6-2-11z" fill="#A07775"/>
<path transform="translate(474,454)" d="m0 0h9l-1 3-6 1-2 5h-1z" fill="#18181F"/>
<path transform="translate(516,1066)" d="m0 0 7 2-1 6h-3l-1-4-3-3z" fill="#4D566A"/>
<path transform="translate(541,784)" d="m0 0 4 2 8 3-4 2h-5l-3-5z" fill="#AF9190"/>
<path transform="translate(416,726)" d="m0 0 3 2v7l3 1-2 8-2-3z" fill="#A6817D"/>
<path transform="translate(484,571)" d="m0 0 5 1 4 2v1l-13-1-1 2 1-4z" fill="#BB9087"/>
<path transform="translate(474,466)" d="m0 0 2 1v2l11 1-1 3-9-2-4 1z" fill="#8F6365"/>
<path transform="translate(543,305)" d="m0 0h5l-1 3-6 2h-6l3-3z" fill="#2B2A31"/>
<path transform="translate(458,244)" d="m0 0h6l-5 5-5 2-1-2z" fill="#262831"/>
<path transform="translate(488,1589)" d="m0 0 2 2-12 8-3 1 2-4z" fill="#34343B"/>
<path transform="translate(581,1556)" d="m0 0 7 6 5 5-4-1-4-2v-2l-3-1z" fill="#A07775"/>
<path transform="translate(557,1514)" d="m0 0 8 5 4 3v5l-5-5-7-5z" fill="#30343E"/>
<path transform="translate(441,829)" d="m0 0 1 2h2l1-2 1 4h-2v5l-4-1-1-6z" fill="#213144"/>
<path transform="translate(548,760)" d="m0 0 2 1-5 6-8 7h-2v-2l4-4h2v-2z" fill="#B69E9E"/>
<path transform="translate(906,733)" d="m0 0 3 1v5h-6l-1-4z" fill="#111D2D"/>
<path transform="translate(683,495)" d="m0 0h2v5l-4 2v-2l-4 1v-3z" fill="#A57D78"/>
<path transform="translate(506,436)" d="m0 0 4 2v7l-5 1-4-2h4v-2l2-1z" fill="#AD8D89"/>
<path transform="translate(712,436)" d="m0 0h5l3 5-7 1z" fill="#233447"/>
<path transform="translate(643,341)" d="m0 0h8l5 1v3l-8-1-5-2z" fill="#2D4157"/>
<path transform="translate(632,335)" d="m0 0h9v2l-2 1h-10l-2-2z" fill="#18181F"/>
<path transform="translate(503,328)" d="m0 0h11l3 2h-6l-7 1-5 2-3-1z" fill="#394F69"/>
<path transform="translate(642,280)" d="m0 0h4l1 4-2 3-4-2-2-4z" fill="#262831"/>
<path transform="translate(514,1411)" d="m0 0v3l-7 6-4-2 1-5 2 3 4-1z" fill="#233447"/>
<path transform="translate(623,631)" d="m0 0 4 1 2 6v7h-1l-2-8-3-1z" fill="#B29796"/>
<path transform="translate(516,603)" d="m0 0 7 1-1 5-6-2z" fill="#D7ADA3"/>
<path transform="translate(660,552)" d="m0 0h5l1 2-5 3-3 6-1-3z" fill="#151F2D"/>
<path transform="translate(581,535)" d="m0 0 3 2v5l-4 2-1-4z" fill="#C1948A"/>
<path transform="translate(482,455)" d="m0 0 4 2-2 4-3-1v-2l-5 3-2 2 1-5 1-1h6z" fill="#111C2C"/>
<path transform="translate(577,289)" d="m0 0 4 1-2 5-5 1v-2l-2-1v-2z" fill="#262831"/>
<path transform="translate(487,265)" d="m0 0 4 1-2 4h-2v3l-4 1 2-6z" fill="#2B2A31"/>
<path transform="translate(518,1257)" d="m0 0 3 1-2 4-1-2h-2l-1 4-4-2 2-3z" fill="#273A4E"/>
<path transform="translate(507,791)" d="m0 0 2 1-8 7v-3zm-9 8 2 1zm-1 1m-1 1 2 1-1 4-4-3z" fill="#B19492"/>
<path transform="translate(918,795)" d="m0 0h8v2l-6 3-4-2v-2z" fill="#233447"/>
<path transform="translate(564,747)" d="m0 0 1 4-4 4-6 2 5-7z" fill="#C6D3E5"/>
<path transform="translate(451,689)" d="m0 0 3 4 2 3v5l-3 1-2-8z" fill="#AE8983"/>
<path transform="translate(502,583)" d="m0 0h5v3l-2-1v2l3 1v3l-5-2z" fill="#CCA39A"/>
<path transform="translate(398,471)" d="m0 0h2v12h-2l-1-3v-7z" fill="#B58F89"/>
<path transform="translate(373,414)" d="m0 0 3 1-2 5h-3-2l-1-5z" fill="#233447"/>
<path transform="translate(625,334)" d="m0 0 7 1-3 3h-6l-1-1-8-1v-1z" fill="#25262F"/>
<path transform="translate(351,1590)" d="m0 0 3 3 4 5v2h-5z" fill="#373032"/>
<path transform="translate(525,994)" d="m0 0 1 4-5 6h-2l1-4z" fill="#394F69"/>
<path transform="translate(555,820)" d="m0 0 4 4 1 9-1 7h-1l-1-14z" fill="#344962"/>
<path transform="translate(602,801)" d="m0 0h1l-1 7-3 11h-1v-7l3-9z" fill="#9A8488"/>
<path transform="translate(918,802)" d="m0 0h5l3 4h-8l-2-1v-2z" fill="#233447"/>
<path transform="translate(501,770)" d="m0 0 6 1 8 4 1 2-5-1-10-5z" fill="#C6D3E5"/>
<path transform="translate(422,752)" d="m0 0 1 2h4v12l-2-2-3-9z" fill="#B19493"/>
<path transform="translate(403,489)" d="m0 0 3 3 1 5v5l-3-3-1-3z" fill="#18181F"/>
<path transform="translate(399,452)" d="m0 0h1l1 17-4-2z" fill="#926163"/>
<path transform="translate(598,452)" d="m0 0h14l6 3-1 3-4-2-2-2-13-1z" fill="#AD8781"/>
<path transform="translate(375,427)" d="m0 0h3l-2 4-4 4h-1l1-7z" fill="#BE948C"/>
<path transform="translate(698,425)" d="m0 0h2v7l4 1 1 2h-3v-2h-6z" fill="#272831"/>
<path transform="translate(454,242)" d="m0 0h2v2h-2l-2 4-5 2v2l-3-1z" fill="#302D31"/>
<path transform="translate(480,240)" d="m0 0 2 1v2l-5 2v2l-5 2 2-4z" fill="#262831"/>
<path transform="translate(478,225)" d="m0 0 2 2-2 2 1 2-7 4 1-4h2v-2l-4-1 6-2z" fill="#262831"/>
<path transform="translate(551,840)" d="m0 0 3 3 2 4 1-6h1v8l-3 3-4-10z" fill="#394F69"/>
<path transform="translate(435,786)" d="m0 0 2 3 2 9v3h-2l-1 2v-11z" fill="#A6807C"/>
<path transform="translate(501,462)" d="m0 0 4 2 2 4h2v2l-6 1-1-7z" fill="#AA8681"/>
<path transform="translate(739)" d="m0 0h5l-1 7-4-2z" fill="#111D2D"/>
<path transform="translate(242,1557)" d="m0 0 4 1-8 6-4-2 3-1 3-3z" fill="#262831"/>
<path transform="translate(302,1530)" d="m0 0 4 1-6 3h-9l3-2z" fill="#2E2D35"/>
<path transform="translate(557,1517)" d="m0 0 5 2 6 5-1 3-1-3h-3v-2l-5-2z" fill="#926163"/>
<path transform="translate(576,901)" d="m0 0 2 1 2 7-5 1-2-1v-3h4v-3l-2-1z" fill="#233447"/>
<path transform="translate(517,887)" d="m0 0h2v6l-1 2h-3l-1-4z" fill="#111D2D"/>
<path transform="translate(693,440)" d="m0 0h1v8l-1 2h-2v2l-4 1 2-4 3-5z" fill="#9C706F"/>
<path transform="translate(579,433)" d="m0 0h8l-3 3-7 2z" fill="#C8A39C"/>
<path transform="translate(387,426)" d="m0 0h2l4 8-1 4v-2h-2l-3-8z" fill="#A57D78"/>
<path transform="translate(577,356)" d="m0 0 7 1 2 5-5-1-4-3z" fill="#A67F7B"/>
<path transform="translate(601,339)" d="m0 0 6 1 1 2-3 1h-10v-1l5-1z" fill="#262831"/>
<path transform="translate(430,292)" d="m0 0 7 1-2 3h-8v-3z" fill="#18181F"/>
<path transform="translate(650,290)" d="m0 0 9 3-4 2h-4l-4-2 3-1z" fill="#262831"/>
<path transform="translate(449,244)" d="m0 0v3l-5 3-1 2-3-1 5-6z" fill="#131B28"/>
<path transform="translate(581,222)" d="m0 0h3l2 3v3l-4-1-5-2z" fill="#262831"/>
<path transform="translate(533,216)" d="m0 0 2 1-1 5-3 1v-2h-5l1-3z" fill="#262831"/>
<path transform="translate(435,818)" d="m0 0 3 3-1 5-5-1 2-6z" fill="#233447"/>
<path transform="translate(438,809)" d="m0 0 2 3 2 6v6l-2-3-3-6z" fill="#2C4056"/>
<path transform="translate(534,588)" d="m0 0h3l1 7-5 1z" fill="#B89E9D"/>
<path transform="translate(682,469)" d="m0 0 2 3 1 6-5 4-1-3 2-2z" fill="#AE867F"/>
<path transform="translate(581,455)" d="m0 0 4 1-9 5-4 3v-3l5-5z" fill="#A57E79"/>
<path transform="translate(424,286)" d="m0 0 2 1v2l6 1v1l-6 1-2 2-1-7z" fill="#18181F"/>
<path transform="translate(656,278)" d="m0 0 7 1 3 2v2l-6-1-4-1z" fill="#18181F"/>
<path transform="translate(530,210)" d="m0 0h4l-1 4-5 1-4-3z" fill="#23252E"/>
<path transform="translate(537,760)" d="m0 0 3 1-4 3-14-2v-1h12z" fill="#AD8D89"/>
<path transform="translate(577,475)" d="m0 0h6l-1 3-13-1v-1z" fill="#C09389"/>
<path transform="translate(450,432)" d="m0 0 4 1-3 1-1 5h-5z" fill="#AD8D89"/>
<path transform="translate(464,418)" d="m0 0h4l1 2 7 1 4 3-5-1-8-1-3-2z" fill="#AD8D89"/>
<path transform="translate(675,407)" d="m0 0 1 4h3l-1 4-5-2 1-5z" fill="#262831"/>
<path transform="translate(679,348)" d="m0 0h8l2 2-1 2-8-1z" fill="#2B2A31"/>
<path transform="translate(707,326)" d="m0 0 3 1 2 7-4-1-2-4z" fill="#223346"/>
<path transform="translate(607,254)" d="m0 0h7l8 3-4 1-11-3z" fill="#18181F"/>
</svg>
